<svg width="630" height="82" viewBox="0 0 630 82" fill="none" xmlns="http://www.w3.org/2000/svg">
<mask id="path-1-outside-1_1449_22440" maskUnits="userSpaceOnUse" x="59.9922" y="0.0234375" width="570" height="78" fill="black">
<rect fill="white" x="59.9922" y="0.0234375" width="570" height="78"/>
<path fill-rule="evenodd" clip-rule="evenodd" d="M146.494 76.3834C141.502 76.3834 136.99 75.2314 132.958 72.9274C128.99 70.5594 125.822 67.3594 123.454 63.3274C121.15 59.2954 119.998 54.7514 119.998 49.6954C119.998 44.6394 121.054 40.1274 123.166 36.1594C125.342 32.1274 128.286 28.9594 131.998 26.6554C135.71 24.2874 139.902 23.1034 144.574 23.1034C148.35 23.1034 151.838 23.9034 155.038 25.5034C158.238 27.0394 160.926 29.1514 163.102 31.8394V5.91944C163.102 4.44744 163.55 3.26344 164.446 2.36744C165.406 1.47144 166.59 1.02344 167.998 1.02344C169.47 1.02344 170.654 1.47144 171.55 2.36744C172.446 3.26344 172.894 4.44744 172.894 5.91944V42.9996H172.896V72.308C172.896 74.899 170.795 76.9995 168.204 76.9995C165.613 76.9995 163.512 74.899 163.512 72.308V70.3773C162.406 71.3139 161.213 72.1639 159.934 72.9274C155.966 75.2314 151.486 76.3834 146.494 76.3834ZM146.494 67.7434C149.758 67.7434 152.67 66.9754 155.23 65.4394C157.79 63.8394 159.806 61.6634 161.278 58.9114C162.75 56.1594 163.486 53.0874 163.486 49.6954C163.486 46.2394 162.75 43.1674 161.278 40.4794C159.806 37.7914 157.79 35.6794 155.23 34.1434C152.67 32.5434 149.758 31.7434 146.494 31.7434C143.294 31.7434 140.382 32.5434 137.758 34.1434C135.198 35.6794 133.15 37.7914 131.614 40.4794C130.142 43.1674 129.406 46.2394 129.406 49.6954C129.406 53.0874 130.142 56.1594 131.614 58.9114C133.15 61.6634 135.198 63.8394 137.758 65.4394C140.382 66.9754 143.294 67.7434 146.494 67.7434ZM84.1282 76.4794C79.7122 76.4794 75.7442 75.5514 72.2242 73.6954C68.7682 71.7754 66.0162 68.9914 63.9682 65.3434C61.9842 61.6954 60.9922 57.2154 60.9922 51.9034V28.2874C60.9922 26.8794 61.4402 25.7274 62.3362 24.8314C63.2962 23.8714 64.4802 23.3914 65.8882 23.3914C67.2962 23.3914 68.4482 23.8714 69.3442 24.8314C70.3042 25.7274 70.7842 26.8794 70.7842 28.2874V51.9034C70.7842 55.4874 71.4562 58.4634 72.8002 60.8314C74.1442 63.1354 75.9682 64.8634 78.2722 66.0154C80.5762 67.1034 83.1682 67.6474 86.0482 67.6474C88.8002 67.6474 91.2322 67.1034 93.3442 66.0154C95.5202 64.9274 97.2482 63.4554 98.5282 61.5994C99.8082 59.7434 100.448 57.6634 100.448 55.3594V28.2874C100.448 26.8154 100.896 25.6314 101.792 24.7354C102.752 23.8394 103.936 23.3914 105.344 23.3914C106.816 23.3914 108 23.8394 108.896 24.7354C109.792 25.6314 110.24 26.8154 110.24 28.2874V71.1034C110.24 72.5114 109.792 73.6954 108.896 74.6554C108 75.5514 106.816 75.9994 105.344 75.9994C103.936 75.9994 102.752 75.5514 101.792 74.6554C100.896 73.6954 100.448 72.5114 100.448 71.1034V70.0562C99.0354 71.4694 97.4034 72.6825 95.5522 73.6954C92.2242 75.5514 88.4162 76.4794 84.1282 76.4794ZM195.658 72.9274C199.69 75.2314 204.202 76.3834 209.194 76.3834C214.186 76.3834 218.666 75.2314 222.634 72.9274C223.912 72.1648 225.103 71.3158 226.209 70.3805V72.308C226.209 74.899 228.309 76.9995 230.9 76.9995C233.491 76.9995 235.592 74.899 235.592 72.308V50.0447C235.593 49.9286 235.594 49.8121 235.594 49.6954V5.91944C235.594 4.44744 235.146 3.26344 234.25 2.36744C233.354 1.47144 232.17 1.02344 230.698 1.02344C229.29 1.02344 228.106 1.47144 227.146 2.36744C226.25 3.26344 225.802 4.44744 225.802 5.91944V31.8394C223.626 29.1514 220.938 27.0394 217.738 25.5034C214.538 23.9034 211.05 23.1034 207.274 23.1034C202.602 23.1034 198.41 24.2874 194.698 26.6554C190.986 28.9594 188.042 32.1274 185.866 36.1594C183.754 40.1274 182.698 44.6394 182.698 49.6954C182.698 54.7514 183.85 59.2954 186.154 63.3274C188.522 67.3594 191.69 70.5594 195.658 72.9274ZM217.93 65.4394C215.37 66.9754 212.458 67.7434 209.194 67.7434C205.994 67.7434 203.082 66.9754 200.458 65.4394C197.898 63.8394 195.85 61.6634 194.314 58.9114C192.842 56.1594 192.106 53.0874 192.106 49.6954C192.106 46.2394 192.842 43.1674 194.314 40.4794C195.85 37.7914 197.898 35.6794 200.458 34.1434C203.082 32.5434 205.994 31.7434 209.194 31.7434C212.458 31.7434 215.37 32.5434 217.93 34.1434C220.49 35.6794 222.506 37.7914 223.978 40.4794C225.45 43.1674 226.186 46.2394 226.186 49.6954C226.186 53.0874 225.45 56.1594 223.978 58.9114C222.506 61.6634 220.49 63.8394 217.93 65.4394ZM293.833 76.3834C288.521 76.3834 283.785 75.2634 279.625 73.0234C275.529 70.7194 272.297 67.5834 269.929 63.6154C267.625 59.5834 266.473 54.9754 266.473 49.7914C266.473 44.5434 267.561 39.9354 269.737 35.9674C271.977 31.9354 275.049 28.7994 278.953 26.5594C282.857 24.2554 287.337 23.1034 292.393 23.1034C297.385 23.1034 301.673 24.2234 305.257 26.4634C308.841 28.6394 311.561 31.6794 313.417 35.5834C315.337 39.4234 316.297 43.8714 316.297 48.9274C316.297 50.1434 315.881 51.1674 315.049 51.9994C314.217 52.7674 313.161 53.1514 311.881 53.1514H275.374C275.728 55.3398 276.441 57.3558 277.513 59.1994C279.113 61.9514 281.321 64.1274 284.137 65.7274C286.953 67.3274 290.185 68.1274 293.833 68.1274C295.817 68.1274 297.833 67.7754 299.881 67.0714C301.993 66.3034 303.689 65.4394 304.969 64.4794C305.929 63.7754 306.953 63.4234 308.041 63.4234C309.193 63.3594 310.185 63.6794 311.017 64.3834C312.105 65.3434 312.681 66.3994 312.745 67.5514C312.809 68.7034 312.297 69.6954 311.209 70.5274C309.033 72.2554 306.313 73.6634 303.049 74.7514C299.849 75.8394 296.777 76.3834 293.833 76.3834ZM277.129 40.3834C276.362 41.9543 275.813 43.6503 275.484 45.4714H307.457C307.174 43.3416 306.601 41.3896 305.737 39.6154C304.521 37.0554 302.793 35.0394 300.553 33.5674C298.313 32.0954 295.593 31.3594 292.393 31.3594C288.745 31.3594 285.609 32.1594 282.985 33.7594C280.425 35.3594 278.473 37.5674 277.129 40.3834ZM330.61 74.3674C334.45 75.7114 338.61 76.3834 343.09 76.3834C347.634 76.3834 351.41 75.6794 354.418 74.2714C357.49 72.8634 359.794 70.9754 361.33 68.6074C362.93 66.2394 363.73 63.5834 363.73 60.6394C363.73 58.0794 363.122 55.8394 361.906 53.9194C360.69 51.9354 358.674 50.2074 355.858 48.7354C353.106 47.2634 349.33 46.0474 344.53 45.0874C341.074 44.3834 338.45 43.6794 336.658 42.9754C334.866 42.2074 333.65 41.3754 333.01 40.4794C332.434 39.5194 332.146 38.4634 332.146 37.3114C332.146 35.4554 333.106 34.0474 335.026 33.0874C337.01 32.1274 339.41 31.6474 342.226 31.6474C344.658 31.6474 346.802 31.9354 348.658 32.5114C350.514 33.0874 352.242 34.1434 353.842 35.6794C354.802 36.5754 355.986 37.1514 357.394 37.4074C358.802 37.6634 360.018 37.4394 361.042 36.7354C362.066 35.9674 362.61 35.0394 362.674 33.9514C362.738 32.7994 362.322 31.7114 361.426 30.6874C359.506 28.3194 356.914 26.4634 353.65 25.1194C350.386 23.7754 346.642 23.1034 342.418 23.1034C339.154 23.1034 336.018 23.6474 333.01 24.7354C330.002 25.7594 327.538 27.3594 325.618 29.5354C323.698 31.6474 322.738 34.3354 322.738 37.5994C322.738 41.3114 324.178 44.4474 327.058 47.0074C330.002 49.5674 334.706 51.4874 341.17 52.7674C346.162 53.6634 349.586 54.8154 351.442 56.2234C353.362 57.6314 354.29 59.2954 354.226 61.2154C354.162 63.1354 353.138 64.7034 351.154 65.9194C349.234 67.1354 346.418 67.7434 342.706 67.7434C339.762 67.7434 337.074 67.2314 334.642 66.2074C332.274 65.1194 330.546 63.9674 329.458 62.7514C328.562 61.7914 327.474 61.2474 326.194 61.1194C324.978 60.9274 323.73 61.3434 322.45 62.3674C321.362 63.1994 320.722 64.2874 320.53 65.6314C320.402 66.9114 320.818 68.0634 321.778 69.0874C323.89 71.1994 326.834 72.9594 330.61 74.3674ZM381.103 71.1994V51.9994V44.1274C381.103 41.7594 381.743 39.6794 383.023 37.8874C384.303 36.0314 386.031 34.5594 388.207 33.4714C390.383 32.3834 392.815 31.8394 395.503 31.8394C398.447 31.8394 401.039 32.4154 403.279 33.5674C405.583 34.6554 407.407 36.3514 408.751 38.6554C410.095 40.9594 410.767 43.9354 410.767 47.5834V71.1994C410.767 72.6074 411.215 73.7914 412.111 74.7514C413.071 75.6474 414.255 76.0954 415.663 76.0954C417.071 76.0954 418.223 75.6474 419.119 74.7514C420.079 73.7914 420.559 72.6074 420.559 71.1994V47.5834C420.559 42.2714 419.535 37.7914 417.487 34.1434C415.503 30.4954 412.751 27.7434 409.231 25.8874C405.775 23.9674 401.839 23.0074 397.423 23.0074C393.199 23.0074 389.391 23.9354 385.999 25.7914C384.16 26.7976 382.528 28.0013 381.103 29.4025V28.3834V5.91944C381.103 4.44744 380.655 3.26344 379.759 2.36744C378.863 1.47144 377.679 1.02344 376.207 1.02344C374.799 1.02344 373.615 1.47144 372.655 2.36744C371.759 3.26344 371.311 4.44744 371.311 5.91944V28.3834V51.9994V71.1994C371.311 72.6074 371.759 73.7914 372.655 74.7514C373.615 75.6474 374.799 76.0954 376.207 76.0954C377.679 76.0954 378.863 75.6474 379.759 74.7514C380.655 73.7914 381.103 72.6074 381.103 71.1994ZM441.354 72.9274C445.066 75.2314 449.258 76.3834 453.93 76.3834C458.602 76.3834 462.794 75.2314 466.506 72.9274C468.794 71.4679 470.778 69.7045 472.458 67.6371V71.1994C472.458 72.6074 472.906 73.7914 473.802 74.7514C474.762 75.6474 475.946 76.0954 477.354 76.0954C478.762 76.0954 479.914 75.6474 480.81 74.7514C481.77 73.7914 482.25 72.6074 482.25 71.1994V49.7914C482.25 44.7354 481.066 40.1914 478.698 36.1594C476.394 32.1274 473.258 28.9594 469.29 26.6554C465.322 24.2874 460.842 23.1034 455.85 23.1034C450.858 23.1034 446.346 24.2874 442.314 26.6554C438.346 28.9594 435.178 32.1274 432.81 36.1594C430.506 40.1914 429.354 44.7354 429.354 49.7914C429.354 54.8474 430.41 59.3914 432.522 63.4234C434.698 67.3914 437.642 70.5594 441.354 72.9274ZM464.586 65.4394C462.026 66.9754 459.114 67.7434 455.85 67.7434C452.65 67.7434 449.738 66.9754 447.114 65.4394C444.554 63.8394 442.506 61.6954 440.97 59.0074C439.498 56.2554 438.762 53.1834 438.762 49.7914C438.762 46.3354 439.498 43.2634 440.97 40.5754C442.506 37.8234 444.554 35.6794 447.114 34.1434C449.738 32.5434 452.65 31.7434 455.85 31.7434C459.114 31.7434 462.026 32.5434 464.586 34.1434C467.146 35.6794 469.162 37.8234 470.634 40.5754C472.106 43.2634 472.842 46.3354 472.842 49.7914C472.842 53.1834 472.106 56.2554 470.634 59.0074C469.162 61.6954 467.146 63.8394 464.586 65.4394ZM501.431 71.2954V56.6281L506.209 52.3635L524.471 74.9434C525.303 75.9674 526.327 76.5114 527.543 76.5754C528.823 76.7034 529.975 76.3514 530.999 75.5194C532.087 74.6234 532.663 73.5994 532.727 72.4474C532.855 71.2314 532.503 70.1114 531.671 69.0874L513.092 46.2207L530.711 30.4954C531.671 29.5994 532.183 28.5754 532.247 27.4234C532.311 26.2714 531.895 25.2154 530.999 24.2554C530.167 23.2954 529.143 22.7834 527.927 22.7194C526.775 22.6554 525.719 23.0714 524.759 23.9674L501.431 44.7879V5.72743C501.431 4.31944 500.983 3.19944 500.087 2.36744C499.255 1.47144 498.135 1.02344 496.727 1.02344C495.319 1.02344 494.167 1.47144 493.271 2.36744C492.439 3.19944 492.023 4.31944 492.023 5.72743V71.2954C492.023 72.7034 492.439 73.8554 493.271 74.7514C494.167 75.5834 495.319 75.9994 496.727 75.9994C498.135 75.9994 499.255 75.5834 500.087 74.7514C500.983 73.8554 501.431 72.7034 501.431 71.2954ZM547.562 73.0234C551.722 75.2634 556.458 76.3834 561.77 76.3834C564.714 76.3834 567.786 75.8394 570.986 74.7514C574.25 73.6634 576.97 72.2554 579.146 70.5274C580.234 69.6954 580.746 68.7034 580.682 67.5514C580.618 66.3994 580.042 65.3434 578.954 64.3834C578.122 63.6794 577.13 63.3594 575.978 63.4234C574.89 63.4234 573.866 63.7754 572.906 64.4794C571.626 65.4394 569.93 66.3034 567.818 67.0714C565.77 67.7754 563.754 68.1274 561.77 68.1274C558.122 68.1274 554.89 67.3274 552.074 65.7274C549.258 64.1274 547.05 61.9514 545.45 59.1994C544.378 57.3558 543.665 55.3398 543.312 53.1514H579.818C581.098 53.1514 582.154 52.7674 582.986 51.9994C583.818 51.1674 584.234 50.1434 584.234 48.9274C584.234 43.8714 583.274 39.4234 581.354 35.5834C579.498 31.6794 576.778 28.6394 573.194 26.4634C569.61 24.2234 565.322 23.1034 560.33 23.1034C555.274 23.1034 550.794 24.2554 546.89 26.5594C542.986 28.7994 539.914 31.9354 537.674 35.9674C535.498 39.9354 534.41 44.5434 534.41 49.7914C534.41 54.9754 535.562 59.5834 537.866 63.6154C540.234 67.5834 543.466 70.7194 547.562 73.0234ZM543.422 45.4714C543.751 43.6503 544.299 41.9543 545.066 40.3834C546.41 37.5674 548.362 35.3594 550.922 33.7594C553.546 32.1594 556.682 31.3594 560.33 31.3594C563.53 31.3594 566.25 32.0954 568.49 33.5674C570.73 35.0394 572.458 37.0554 573.674 39.6154C574.539 41.3896 575.112 43.3416 575.394 45.4714H543.422ZM601.523 71.1994V43.1674C601.523 40.2234 602.451 37.7914 604.307 35.8714C606.227 33.9514 608.819 32.6394 612.083 31.9354C615.347 31.2314 619.027 31.2954 623.123 32.1274C623.955 32.3194 624.723 32.3514 625.427 32.2234C626.131 32.0954 626.739 31.8074 627.251 31.3594C627.827 30.8474 628.211 30.1434 628.403 29.2474C628.851 27.5194 628.115 26.0474 626.195 24.8314C624.339 23.5514 621.491 22.9114 617.651 22.9114C613.811 22.9114 610.291 23.8074 607.091 25.5994C604.948 26.7995 603.092 28.2867 601.523 30.0608V28.2874C601.523 26.6874 601.107 25.5034 600.275 24.7354C599.507 23.9034 598.323 23.4874 596.723 23.4874C595.187 23.4874 594.003 23.9034 593.171 24.7354C592.339 25.5674 591.923 26.7514 591.923 28.2874V71.1994C591.923 72.7994 592.339 74.0154 593.171 74.8474C594.003 75.6154 595.187 75.9994 596.723 75.9994C598.323 75.9994 599.507 75.5834 600.275 74.7514C601.107 73.9194 601.523 72.7354 601.523 71.1994Z"/>
</mask>
<path fill-rule="evenodd" clip-rule="evenodd" d="M146.494 76.3834C141.502 76.3834 136.99 75.2314 132.958 72.9274C128.99 70.5594 125.822 67.3594 123.454 63.3274C121.15 59.2954 119.998 54.7514 119.998 49.6954C119.998 44.6394 121.054 40.1274 123.166 36.1594C125.342 32.1274 128.286 28.9594 131.998 26.6554C135.71 24.2874 139.902 23.1034 144.574 23.1034C148.35 23.1034 151.838 23.9034 155.038 25.5034C158.238 27.0394 160.926 29.1514 163.102 31.8394V5.91944C163.102 4.44744 163.55 3.26344 164.446 2.36744C165.406 1.47144 166.59 1.02344 167.998 1.02344C169.47 1.02344 170.654 1.47144 171.55 2.36744C172.446 3.26344 172.894 4.44744 172.894 5.91944V42.9996H172.896V72.308C172.896 74.899 170.795 76.9995 168.204 76.9995C165.613 76.9995 163.512 74.899 163.512 72.308V70.3773C162.406 71.3139 161.213 72.1639 159.934 72.9274C155.966 75.2314 151.486 76.3834 146.494 76.3834ZM146.494 67.7434C149.758 67.7434 152.67 66.9754 155.23 65.4394C157.79 63.8394 159.806 61.6634 161.278 58.9114C162.75 56.1594 163.486 53.0874 163.486 49.6954C163.486 46.2394 162.75 43.1674 161.278 40.4794C159.806 37.7914 157.79 35.6794 155.23 34.1434C152.67 32.5434 149.758 31.7434 146.494 31.7434C143.294 31.7434 140.382 32.5434 137.758 34.1434C135.198 35.6794 133.15 37.7914 131.614 40.4794C130.142 43.1674 129.406 46.2394 129.406 49.6954C129.406 53.0874 130.142 56.1594 131.614 58.9114C133.15 61.6634 135.198 63.8394 137.758 65.4394C140.382 66.9754 143.294 67.7434 146.494 67.7434ZM84.1282 76.4794C79.7122 76.4794 75.7442 75.5514 72.2242 73.6954C68.7682 71.7754 66.0162 68.9914 63.9682 65.3434C61.9842 61.6954 60.9922 57.2154 60.9922 51.9034V28.2874C60.9922 26.8794 61.4402 25.7274 62.3362 24.8314C63.2962 23.8714 64.4802 23.3914 65.8882 23.3914C67.2962 23.3914 68.4482 23.8714 69.3442 24.8314C70.3042 25.7274 70.7842 26.8794 70.7842 28.2874V51.9034C70.7842 55.4874 71.4562 58.4634 72.8002 60.8314C74.1442 63.1354 75.9682 64.8634 78.2722 66.0154C80.5762 67.1034 83.1682 67.6474 86.0482 67.6474C88.8002 67.6474 91.2322 67.1034 93.3442 66.0154C95.5202 64.9274 97.2482 63.4554 98.5282 61.5994C99.8082 59.7434 100.448 57.6634 100.448 55.3594V28.2874C100.448 26.8154 100.896 25.6314 101.792 24.7354C102.752 23.8394 103.936 23.3914 105.344 23.3914C106.816 23.3914 108 23.8394 108.896 24.7354C109.792 25.6314 110.24 26.8154 110.24 28.2874V71.1034C110.24 72.5114 109.792 73.6954 108.896 74.6554C108 75.5514 106.816 75.9994 105.344 75.9994C103.936 75.9994 102.752 75.5514 101.792 74.6554C100.896 73.6954 100.448 72.5114 100.448 71.1034V70.0562C99.0354 71.4694 97.4034 72.6825 95.5522 73.6954C92.2242 75.5514 88.4162 76.4794 84.1282 76.4794ZM195.658 72.9274C199.69 75.2314 204.202 76.3834 209.194 76.3834C214.186 76.3834 218.666 75.2314 222.634 72.9274C223.912 72.1648 225.103 71.3158 226.209 70.3805V72.308C226.209 74.899 228.309 76.9995 230.9 76.9995C233.491 76.9995 235.592 74.899 235.592 72.308V50.0447C235.593 49.9286 235.594 49.8121 235.594 49.6954V5.91944C235.594 4.44744 235.146 3.26344 234.25 2.36744C233.354 1.47144 232.17 1.02344 230.698 1.02344C229.29 1.02344 228.106 1.47144 227.146 2.36744C226.25 3.26344 225.802 4.44744 225.802 5.91944V31.8394C223.626 29.1514 220.938 27.0394 217.738 25.5034C214.538 23.9034 211.05 23.1034 207.274 23.1034C202.602 23.1034 198.41 24.2874 194.698 26.6554C190.986 28.9594 188.042 32.1274 185.866 36.1594C183.754 40.1274 182.698 44.6394 182.698 49.6954C182.698 54.7514 183.85 59.2954 186.154 63.3274C188.522 67.3594 191.69 70.5594 195.658 72.9274ZM217.93 65.4394C215.37 66.9754 212.458 67.7434 209.194 67.7434C205.994 67.7434 203.082 66.9754 200.458 65.4394C197.898 63.8394 195.85 61.6634 194.314 58.9114C192.842 56.1594 192.106 53.0874 192.106 49.6954C192.106 46.2394 192.842 43.1674 194.314 40.4794C195.85 37.7914 197.898 35.6794 200.458 34.1434C203.082 32.5434 205.994 31.7434 209.194 31.7434C212.458 31.7434 215.37 32.5434 217.93 34.1434C220.49 35.6794 222.506 37.7914 223.978 40.4794C225.45 43.1674 226.186 46.2394 226.186 49.6954C226.186 53.0874 225.45 56.1594 223.978 58.9114C222.506 61.6634 220.49 63.8394 217.93 65.4394ZM293.833 76.3834C288.521 76.3834 283.785 75.2634 279.625 73.0234C275.529 70.7194 272.297 67.5834 269.929 63.6154C267.625 59.5834 266.473 54.9754 266.473 49.7914C266.473 44.5434 267.561 39.9354 269.737 35.9674C271.977 31.9354 275.049 28.7994 278.953 26.5594C282.857 24.2554 287.337 23.1034 292.393 23.1034C297.385 23.1034 301.673 24.2234 305.257 26.4634C308.841 28.6394 311.561 31.6794 313.417 35.5834C315.337 39.4234 316.297 43.8714 316.297 48.9274C316.297 50.1434 315.881 51.1674 315.049 51.9994C314.217 52.7674 313.161 53.1514 311.881 53.1514H275.374C275.728 55.3398 276.441 57.3558 277.513 59.1994C279.113 61.9514 281.321 64.1274 284.137 65.7274C286.953 67.3274 290.185 68.1274 293.833 68.1274C295.817 68.1274 297.833 67.7754 299.881 67.0714C301.993 66.3034 303.689 65.4394 304.969 64.4794C305.929 63.7754 306.953 63.4234 308.041 63.4234C309.193 63.3594 310.185 63.6794 311.017 64.3834C312.105 65.3434 312.681 66.3994 312.745 67.5514C312.809 68.7034 312.297 69.6954 311.209 70.5274C309.033 72.2554 306.313 73.6634 303.049 74.7514C299.849 75.8394 296.777 76.3834 293.833 76.3834ZM277.129 40.3834C276.362 41.9543 275.813 43.6503 275.484 45.4714H307.457C307.174 43.3416 306.601 41.3896 305.737 39.6154C304.521 37.0554 302.793 35.0394 300.553 33.5674C298.313 32.0954 295.593 31.3594 292.393 31.3594C288.745 31.3594 285.609 32.1594 282.985 33.7594C280.425 35.3594 278.473 37.5674 277.129 40.3834ZM330.61 74.3674C334.45 75.7114 338.61 76.3834 343.09 76.3834C347.634 76.3834 351.41 75.6794 354.418 74.2714C357.49 72.8634 359.794 70.9754 361.33 68.6074C362.93 66.2394 363.73 63.5834 363.73 60.6394C363.73 58.0794 363.122 55.8394 361.906 53.9194C360.69 51.9354 358.674 50.2074 355.858 48.7354C353.106 47.2634 349.33 46.0474 344.53 45.0874C341.074 44.3834 338.45 43.6794 336.658 42.9754C334.866 42.2074 333.65 41.3754 333.01 40.4794C332.434 39.5194 332.146 38.4634 332.146 37.3114C332.146 35.4554 333.106 34.0474 335.026 33.0874C337.01 32.1274 339.41 31.6474 342.226 31.6474C344.658 31.6474 346.802 31.9354 348.658 32.5114C350.514 33.0874 352.242 34.1434 353.842 35.6794C354.802 36.5754 355.986 37.1514 357.394 37.4074C358.802 37.6634 360.018 37.4394 361.042 36.7354C362.066 35.9674 362.61 35.0394 362.674 33.9514C362.738 32.7994 362.322 31.7114 361.426 30.6874C359.506 28.3194 356.914 26.4634 353.65 25.1194C350.386 23.7754 346.642 23.1034 342.418 23.1034C339.154 23.1034 336.018 23.6474 333.01 24.7354C330.002 25.7594 327.538 27.3594 325.618 29.5354C323.698 31.6474 322.738 34.3354 322.738 37.5994C322.738 41.3114 324.178 44.4474 327.058 47.0074C330.002 49.5674 334.706 51.4874 341.17 52.7674C346.162 53.6634 349.586 54.8154 351.442 56.2234C353.362 57.6314 354.29 59.2954 354.226 61.2154C354.162 63.1354 353.138 64.7034 351.154 65.9194C349.234 67.1354 346.418 67.7434 342.706 67.7434C339.762 67.7434 337.074 67.2314 334.642 66.2074C332.274 65.1194 330.546 63.9674 329.458 62.7514C328.562 61.7914 327.474 61.2474 326.194 61.1194C324.978 60.9274 323.73 61.3434 322.45 62.3674C321.362 63.1994 320.722 64.2874 320.53 65.6314C320.402 66.9114 320.818 68.0634 321.778 69.0874C323.89 71.1994 326.834 72.9594 330.61 74.3674ZM381.103 71.1994V51.9994V44.1274C381.103 41.7594 381.743 39.6794 383.023 37.8874C384.303 36.0314 386.031 34.5594 388.207 33.4714C390.383 32.3834 392.815 31.8394 395.503 31.8394C398.447 31.8394 401.039 32.4154 403.279 33.5674C405.583 34.6554 407.407 36.3514 408.751 38.6554C410.095 40.9594 410.767 43.9354 410.767 47.5834V71.1994C410.767 72.6074 411.215 73.7914 412.111 74.7514C413.071 75.6474 414.255 76.0954 415.663 76.0954C417.071 76.0954 418.223 75.6474 419.119 74.7514C420.079 73.7914 420.559 72.6074 420.559 71.1994V47.5834C420.559 42.2714 419.535 37.7914 417.487 34.1434C415.503 30.4954 412.751 27.7434 409.231 25.8874C405.775 23.9674 401.839 23.0074 397.423 23.0074C393.199 23.0074 389.391 23.9354 385.999 25.7914C384.16 26.7976 382.528 28.0013 381.103 29.4025V28.3834V5.91944C381.103 4.44744 380.655 3.26344 379.759 2.36744C378.863 1.47144 377.679 1.02344 376.207 1.02344C374.799 1.02344 373.615 1.47144 372.655 2.36744C371.759 3.26344 371.311 4.44744 371.311 5.91944V28.3834V51.9994V71.1994C371.311 72.6074 371.759 73.7914 372.655 74.7514C373.615 75.6474 374.799 76.0954 376.207 76.0954C377.679 76.0954 378.863 75.6474 379.759 74.7514C380.655 73.7914 381.103 72.6074 381.103 71.1994ZM441.354 72.9274C445.066 75.2314 449.258 76.3834 453.93 76.3834C458.602 76.3834 462.794 75.2314 466.506 72.9274C468.794 71.4679 470.778 69.7045 472.458 67.6371V71.1994C472.458 72.6074 472.906 73.7914 473.802 74.7514C474.762 75.6474 475.946 76.0954 477.354 76.0954C478.762 76.0954 479.914 75.6474 480.81 74.7514C481.77 73.7914 482.25 72.6074 482.25 71.1994V49.7914C482.25 44.7354 481.066 40.1914 478.698 36.1594C476.394 32.1274 473.258 28.9594 469.29 26.6554C465.322 24.2874 460.842 23.1034 455.85 23.1034C450.858 23.1034 446.346 24.2874 442.314 26.6554C438.346 28.9594 435.178 32.1274 432.81 36.1594C430.506 40.1914 429.354 44.7354 429.354 49.7914C429.354 54.8474 430.41 59.3914 432.522 63.4234C434.698 67.3914 437.642 70.5594 441.354 72.9274ZM464.586 65.4394C462.026 66.9754 459.114 67.7434 455.85 67.7434C452.65 67.7434 449.738 66.9754 447.114 65.4394C444.554 63.8394 442.506 61.6954 440.97 59.0074C439.498 56.2554 438.762 53.1834 438.762 49.7914C438.762 46.3354 439.498 43.2634 440.97 40.5754C442.506 37.8234 444.554 35.6794 447.114 34.1434C449.738 32.5434 452.65 31.7434 455.85 31.7434C459.114 31.7434 462.026 32.5434 464.586 34.1434C467.146 35.6794 469.162 37.8234 470.634 40.5754C472.106 43.2634 472.842 46.3354 472.842 49.7914C472.842 53.1834 472.106 56.2554 470.634 59.0074C469.162 61.6954 467.146 63.8394 464.586 65.4394ZM501.431 71.2954V56.6281L506.209 52.3635L524.471 74.9434C525.303 75.9674 526.327 76.5114 527.543 76.5754C528.823 76.7034 529.975 76.3514 530.999 75.5194C532.087 74.6234 532.663 73.5994 532.727 72.4474C532.855 71.2314 532.503 70.1114 531.671 69.0874L513.092 46.2207L530.711 30.4954C531.671 29.5994 532.183 28.5754 532.247 27.4234C532.311 26.2714 531.895 25.2154 530.999 24.2554C530.167 23.2954 529.143 22.7834 527.927 22.7194C526.775 22.6554 525.719 23.0714 524.759 23.9674L501.431 44.7879V5.72743C501.431 4.31944 500.983 3.19944 500.087 2.36744C499.255 1.47144 498.135 1.02344 496.727 1.02344C495.319 1.02344 494.167 1.47144 493.271 2.36744C492.439 3.19944 492.023 4.31944 492.023 5.72743V71.2954C492.023 72.7034 492.439 73.8554 493.271 74.7514C494.167 75.5834 495.319 75.9994 496.727 75.9994C498.135 75.9994 499.255 75.5834 500.087 74.7514C500.983 73.8554 501.431 72.7034 501.431 71.2954ZM547.562 73.0234C551.722 75.2634 556.458 76.3834 561.77 76.3834C564.714 76.3834 567.786 75.8394 570.986 74.7514C574.25 73.6634 576.97 72.2554 579.146 70.5274C580.234 69.6954 580.746 68.7034 580.682 67.5514C580.618 66.3994 580.042 65.3434 578.954 64.3834C578.122 63.6794 577.13 63.3594 575.978 63.4234C574.89 63.4234 573.866 63.7754 572.906 64.4794C571.626 65.4394 569.93 66.3034 567.818 67.0714C565.77 67.7754 563.754 68.1274 561.77 68.1274C558.122 68.1274 554.89 67.3274 552.074 65.7274C549.258 64.1274 547.05 61.9514 545.45 59.1994C544.378 57.3558 543.665 55.3398 543.312 53.1514H579.818C581.098 53.1514 582.154 52.7674 582.986 51.9994C583.818 51.1674 584.234 50.1434 584.234 48.9274C584.234 43.8714 583.274 39.4234 581.354 35.5834C579.498 31.6794 576.778 28.6394 573.194 26.4634C569.61 24.2234 565.322 23.1034 560.33 23.1034C555.274 23.1034 550.794 24.2554 546.89 26.5594C542.986 28.7994 539.914 31.9354 537.674 35.9674C535.498 39.9354 534.41 44.5434 534.41 49.7914C534.41 54.9754 535.562 59.5834 537.866 63.6154C540.234 67.5834 543.466 70.7194 547.562 73.0234ZM543.422 45.4714C543.751 43.6503 544.299 41.9543 545.066 40.3834C546.41 37.5674 548.362 35.3594 550.922 33.7594C553.546 32.1594 556.682 31.3594 560.33 31.3594C563.53 31.3594 566.25 32.0954 568.49 33.5674C570.73 35.0394 572.458 37.0554 573.674 39.6154C574.539 41.3896 575.112 43.3416 575.394 45.4714H543.422ZM601.523 71.1994V43.1674C601.523 40.2234 602.451 37.7914 604.307 35.8714C606.227 33.9514 608.819 32.6394 612.083 31.9354C615.347 31.2314 619.027 31.2954 623.123 32.1274C623.955 32.3194 624.723 32.3514 625.427 32.2234C626.131 32.0954 626.739 31.8074 627.251 31.3594C627.827 30.8474 628.211 30.1434 628.403 29.2474C628.851 27.5194 628.115 26.0474 626.195 24.8314C624.339 23.5514 621.491 22.9114 617.651 22.9114C613.811 22.9114 610.291 23.8074 607.091 25.5994C604.948 26.7995 603.092 28.2867 601.523 30.0608V28.2874C601.523 26.6874 601.107 25.5034 600.275 24.7354C599.507 23.9034 598.323 23.4874 596.723 23.4874C595.187 23.4874 594.003 23.9034 593.171 24.7354C592.339 25.5674 591.923 26.7514 591.923 28.2874V71.1994C591.923 72.7994 592.339 74.0154 593.171 74.8474C594.003 75.6154 595.187 75.9994 596.723 75.9994C598.323 75.9994 599.507 75.5834 600.275 74.7514C601.107 73.9194 601.523 72.7354 601.523 71.1994Z" fill="#F17661"/>
<path d="M246.166 58.2394H245.841V58.5644H246.166V58.2394ZM255.766 58.2394V58.5644H256.091V58.2394H255.766ZM246.491 58.2394V5.82344H245.841V58.2394H246.491ZM246.491 5.82344C246.491 4.49114 246.911 3.42526 247.739 2.59725L247.28 2.13763C246.316 3.10162 245.841 4.33974 245.841 5.82344H246.491ZM247.739 2.59725C248.567 1.76924 249.633 1.34844 250.966 1.34844V0.698438C249.482 0.698438 248.244 1.17364 247.28 2.13763L247.739 2.59725ZM250.966 1.34844C252.298 1.34844 253.364 1.76924 254.192 2.59725L254.652 2.13763C253.688 1.17364 252.449 0.698438 250.966 0.698438V1.34844ZM254.192 2.59725C255.02 3.42526 255.441 4.49114 255.441 5.82344H256.091C256.091 4.33974 255.615 3.10162 254.652 2.13763L254.192 2.59725ZM255.441 5.82344V58.2394H256.091V5.82344H255.441ZM246.166 58.5644H255.766V57.9144H246.166V58.5644ZM132.958 72.9274L132.625 73.4857L132.635 73.4918L132.958 72.9274ZM123.454 63.3274L122.889 63.65L122.893 63.6566L123.454 63.3274ZM123.166 36.1594L122.594 35.8507L122.592 35.854L123.166 36.1594ZM131.998 26.6554L132.341 27.2077L132.347 27.2034L131.998 26.6554ZM155.038 25.5034L154.747 26.0849L154.756 26.0894L155.038 25.5034ZM163.102 31.8394L162.596 32.2484L163.752 33.6754V31.8394H163.102ZM164.446 2.36744L164.002 1.89225L163.994 1.8999L163.986 1.90782L164.446 2.36744ZM172.894 42.9996H172.244V43.6496H172.894V42.9996ZM172.896 42.9996H173.546V42.3496H172.896V42.9996ZM168.204 76.9995L168.204 76.3495L168.204 76.3495L168.204 76.9995ZM163.512 70.3773H164.162V68.9756L163.093 69.8812L163.512 70.3773ZM159.934 72.9274L160.26 73.4896L160.267 73.4856L159.934 72.9274ZM155.23 65.4394L155.564 65.9969L155.574 65.9906L155.23 65.4394ZM161.278 58.9114L161.851 59.218L161.851 59.218L161.278 58.9114ZM161.278 40.4794L160.708 40.7916L160.708 40.7916L161.278 40.4794ZM155.23 34.1434L154.885 34.6947L154.895 34.7008L155.23 34.1434ZM137.758 34.1434L138.092 34.7008L138.096 34.6984L137.758 34.1434ZM131.614 40.4794L131.049 40.1569L131.044 40.1672L131.614 40.4794ZM131.614 58.9114L131.04 59.2181L131.046 59.2282L131.614 58.9114ZM137.758 65.4394L137.413 65.9906L137.421 65.9956L137.429 66.0004L137.758 65.4394ZM72.2242 73.6954L71.9085 74.2636L71.9147 74.2671L71.921 74.2704L72.2242 73.6954ZM63.9682 65.3434L63.3971 65.654L63.4014 65.6616L63.9682 65.3434ZM62.3362 24.8314L61.8766 24.3718L61.8766 24.3718L62.3362 24.8314ZM69.3442 24.8314L68.869 25.2749L68.8843 25.2913L68.9007 25.3066L69.3442 24.8314ZM72.8002 60.8314L72.2349 61.1523L72.2387 61.159L72.8002 60.8314ZM78.2722 66.0154L77.9815 66.5968L77.988 66.6001L77.9946 66.6032L78.2722 66.0154ZM93.3442 66.0154L93.0535 65.434L93.0465 65.4376L93.3442 66.0154ZM101.792 24.7354L101.349 24.2602L101.34 24.2679L101.333 24.2758L101.792 24.7354ZM108.896 74.6554L109.356 75.1151L109.364 75.1071L109.371 75.0989L108.896 74.6554ZM101.792 74.6554L101.317 75.0989L101.332 75.1153L101.349 75.1306L101.792 74.6554ZM100.448 70.0562H101.098V68.4865L99.9885 69.5966L100.448 70.0562ZM95.5522 73.6954L95.2402 73.1252L95.2356 73.1277L95.5522 73.6954ZM195.658 72.9274L195.325 73.4857L195.335 73.4918L195.658 72.9274ZM222.634 72.9274L222.96 73.4896L222.967 73.4856L222.634 72.9274ZM226.209 70.3805H226.859V68.9791L225.789 69.8843L226.209 70.3805ZM230.9 76.9995L230.9 76.3495L230.9 76.3495L230.9 76.9995ZM235.592 50.0447L234.942 50.0376V50.0447H235.592ZM227.146 2.36744L226.702 1.89225L226.694 1.8999L226.686 1.90782L227.146 2.36744ZM225.802 31.8394L225.296 32.2484L226.452 33.6754V31.8394H225.802ZM217.738 25.5034L217.447 26.0849L217.456 26.0894L217.738 25.5034ZM194.698 26.6554L195.041 27.2077L195.047 27.2034L194.698 26.6554ZM185.866 36.1594L185.294 35.8507L185.292 35.854L185.866 36.1594ZM186.154 63.3274L185.589 63.65L185.593 63.6566L186.154 63.3274ZM217.93 65.4394L218.264 65.9969L218.274 65.9906L217.93 65.4394ZM200.458 65.4394L200.113 65.9906L200.121 65.9956L200.129 66.0004L200.458 65.4394ZM194.314 58.9114L193.74 59.2181L193.746 59.2282L194.314 58.9114ZM194.314 40.4794L193.749 40.1569L193.744 40.1672L194.314 40.4794ZM200.458 34.1434L200.792 34.7008L200.796 34.6984L200.458 34.1434ZM217.93 34.1434L217.585 34.6947L217.595 34.7008L217.93 34.1434ZM223.978 40.4794L223.408 40.7916L223.408 40.7916L223.978 40.4794ZM223.978 58.9114L224.551 59.218L224.551 59.218L223.978 58.9114ZM279.625 73.0234L279.306 73.5901L279.317 73.5957L279.625 73.0234ZM269.929 63.6154L269.364 63.938L269.371 63.9485L269.929 63.6154ZM269.737 35.9674L269.168 35.6518L269.167 35.6549L269.737 35.9674ZM278.953 26.5594L279.276 27.1233L279.283 27.1192L278.953 26.5594ZM305.257 26.4634L304.912 27.0147L304.919 27.019L305.257 26.4634ZM313.417 35.5834L312.83 35.8626L312.835 35.8741L313.417 35.5834ZM315.049 51.9994L315.49 52.4771L315.499 52.4682L315.508 52.4591L315.049 51.9994ZM275.374 53.1514V52.5014H274.611L274.732 53.2552L275.374 53.1514ZM277.513 59.1994L278.075 58.8727L278.075 58.8727L277.513 59.1994ZM299.881 67.0714L300.092 67.6862L300.103 67.6823L299.881 67.0714ZM304.969 64.4794L304.584 63.9552L304.579 63.9594L304.969 64.4794ZM308.041 63.4234V64.0734H308.059L308.077 64.0724L308.041 63.4234ZM311.017 64.3834L311.447 63.8959L311.437 63.8872L311.017 64.3834ZM311.209 70.5274L310.814 70.011L310.804 70.0184L311.209 70.5274ZM303.049 74.7514L302.843 74.1348L302.839 74.136L303.049 74.7514ZM275.484 45.4714L274.844 45.3558L274.706 46.1214H275.484V45.4714ZM277.129 40.3834L277.713 40.6687L277.715 40.6634L277.129 40.3834ZM307.457 45.4714V46.1214H308.199L308.101 45.386L307.457 45.4714ZM305.737 39.6154L305.15 39.8943L305.152 39.9001L305.737 39.6154ZM282.985 33.7594L282.646 33.2044L282.64 33.2082L282.985 33.7594ZM330.61 74.3674L330.383 74.9766L330.395 74.9809L330.61 74.3674ZM354.418 74.2714L354.147 73.6805L354.142 73.6827L354.418 74.2714ZM361.33 68.6074L360.791 68.2435L360.784 68.2537L361.33 68.6074ZM361.906 53.9194L361.351 54.2591L361.357 54.2672L361.906 53.9194ZM355.858 48.7354L355.551 49.3086L355.557 49.3115L355.858 48.7354ZM344.53 45.0874L344.4 45.7244L344.402 45.7248L344.53 45.0874ZM336.658 42.9754L336.402 43.5729L336.411 43.5768L336.42 43.5804L336.658 42.9754ZM333.01 40.4794L332.452 40.8139L332.466 40.8361L332.481 40.8572L333.01 40.4794ZM335.026 33.0874L334.743 32.5023L334.735 32.5061L335.026 33.0874ZM353.842 35.6794L353.392 36.1484L353.398 36.1546L353.842 35.6794ZM361.042 36.7354L361.41 37.2711L361.421 37.2635L361.432 37.2554L361.042 36.7354ZM362.674 33.9514L363.323 33.9896L363.323 33.9875L362.674 33.9514ZM361.426 30.6874L360.921 31.0968L360.929 31.1063L360.937 31.1155L361.426 30.6874ZM353.65 25.1194L353.897 24.5184L353.897 24.5184L353.65 25.1194ZM333.01 24.7354L333.219 25.3509L333.231 25.3467L333.01 24.7354ZM325.618 29.5354L326.099 29.9727L326.105 29.9655L325.618 29.5354ZM327.058 47.0074L326.626 47.4933L326.631 47.4979L327.058 47.0074ZM341.17 52.7674L341.043 53.4052L341.055 53.4072L341.17 52.7674ZM351.442 56.2234L351.049 56.7414L351.057 56.7476L351.442 56.2234ZM351.154 65.9194L350.814 65.3652L350.806 65.3703L351.154 65.9194ZM334.642 66.2074L334.37 66.7981L334.38 66.8024L334.389 66.8065L334.642 66.2074ZM329.458 62.7514L329.942 62.3179L329.933 62.3079L329.458 62.7514ZM326.194 61.1194L326.092 61.7615L326.111 61.7644L326.129 61.7662L326.194 61.1194ZM322.45 62.3674L322.845 62.8838L322.85 62.8794L322.856 62.875L322.45 62.3674ZM320.53 65.6314L319.886 65.5395L319.884 65.5531L319.883 65.5668L320.53 65.6314ZM321.778 69.0874L321.304 69.532L321.311 69.5396L321.318 69.5471L321.778 69.0874ZM383.023 37.8874L383.552 38.2653L383.558 38.2565L383.023 37.8874ZM388.207 33.4714L387.916 32.8901L387.916 32.8901L388.207 33.4714ZM403.279 33.5674L402.981 34.1455L402.991 34.1505L403.001 34.1552L403.279 33.5674ZM408.751 38.6554L409.312 38.3279L409.312 38.3279L408.751 38.6554ZM412.111 74.7514L411.636 75.1949L411.651 75.2113L411.667 75.2266L412.111 74.7514ZM419.119 74.7514L418.659 74.2918L418.659 74.2918L419.119 74.7514ZM417.487 34.1434L416.916 34.454L416.92 34.4616L417.487 34.1434ZM409.231 25.8874L408.915 26.4556L408.921 26.4591L408.928 26.4624L409.231 25.8874ZM385.999 25.7914L385.687 25.2212L385.687 25.2212L385.999 25.7914ZM381.103 29.4025H380.453V30.9532L381.558 29.866L381.103 29.4025ZM372.655 2.36744L372.211 1.89225L372.203 1.8999L372.195 1.90782L372.655 2.36744ZM372.655 74.7514L372.18 75.1949L372.195 75.2113L372.211 75.2266L372.655 74.7514ZM379.759 74.7514L380.218 75.2111L380.226 75.2031L380.234 75.1949L379.759 74.7514ZM441.354 72.9274L441.004 73.4755L441.011 73.4797L441.354 72.9274ZM466.506 72.9274L466.849 73.4798L466.856 73.4754L466.506 72.9274ZM472.458 67.6371H473.108V65.8066L471.954 67.2272L472.458 67.6371ZM473.802 74.7514L473.327 75.1949L473.342 75.2113L473.358 75.2266L473.802 74.7514ZM480.81 74.7514L480.35 74.2918L480.35 74.2918L480.81 74.7514ZM478.698 36.1594L478.134 36.482L478.137 36.4886L478.698 36.1594ZM469.29 26.6554L468.957 27.2136L468.964 27.2175L469.29 26.6554ZM442.314 26.6554L442.64 27.2176L442.643 27.2159L442.314 26.6554ZM432.81 36.1594L432.249 35.8302L432.246 35.8369L432.81 36.1594ZM432.522 63.4234L431.946 63.7251L431.952 63.736L432.522 63.4234ZM464.586 65.4394L464.92 65.9969L464.93 65.9906L464.586 65.4394ZM447.114 65.4394L446.769 65.9906L446.777 65.9956L446.786 66.0004L447.114 65.4394ZM440.97 59.0074L440.397 59.314L440.401 59.322L440.406 59.3299L440.97 59.0074ZM440.97 40.5754L440.402 40.2586L440.4 40.2632L440.97 40.5754ZM447.114 34.1434L447.448 34.7008L447.452 34.6984L447.114 34.1434ZM464.586 34.1434L464.241 34.6947L464.252 34.7008L464.586 34.1434ZM470.634 40.5754L470.061 40.882L470.064 40.8876L470.634 40.5754ZM470.634 59.0074L471.204 59.3197L471.207 59.314L470.634 59.0074ZM501.431 56.6281L500.998 56.1431L500.781 56.337V56.6281H501.431ZM506.209 52.3635L506.715 51.9548L506.286 51.4242L505.777 51.8786L506.209 52.3635ZM524.471 74.9434L523.966 75.3522L523.967 75.3533L524.471 74.9434ZM527.543 76.5754L527.608 75.9287L527.593 75.9271L527.577 75.9263L527.543 76.5754ZM530.999 75.5194L531.409 76.0239L531.412 76.0212L530.999 75.5194ZM532.727 72.4474L532.081 72.3794L532.079 72.3954L532.078 72.4114L532.727 72.4474ZM531.671 69.0874L532.176 68.6775L532.176 68.6775L531.671 69.0874ZM513.092 46.2207L512.659 45.7358L512.196 46.149L512.588 46.6306L513.092 46.2207ZM530.711 30.4954L531.144 30.9804L531.149 30.9756L531.155 30.9706L530.711 30.4954ZM530.999 24.2554L530.508 24.6811L530.516 24.6902L530.524 24.6989L530.999 24.2554ZM527.927 22.7194L527.891 23.3684L527.893 23.3685L527.927 22.7194ZM524.759 23.9674L525.192 24.4524L525.197 24.4476L525.203 24.4426L524.759 23.9674ZM501.431 44.7879H500.781V46.2392L501.864 45.2728L501.431 44.7879ZM500.087 2.36744L499.611 2.80973L499.627 2.82737L499.645 2.84375L500.087 2.36744ZM493.271 2.36744L493.731 2.82706L493.731 2.82706L493.271 2.36744ZM493.271 74.7514L492.795 75.1937L492.811 75.2114L492.829 75.2277L493.271 74.7514ZM500.087 74.7514L500.547 75.2111L500.547 75.2111L500.087 74.7514ZM547.562 73.0234L547.244 73.5901L547.254 73.5957L547.562 73.0234ZM570.986 74.7514L570.781 74.1348L570.777 74.136L570.986 74.7514ZM579.146 70.5274L578.751 70.011L578.742 70.0184L579.146 70.5274ZM578.954 64.3834L579.384 63.8959L579.374 63.8872L578.954 64.3834ZM575.978 63.4234V64.0734H575.996L576.014 64.0724L575.978 63.4234ZM572.906 64.4794L572.522 63.9552L572.516 63.9594L572.906 64.4794ZM567.818 67.0714L568.03 67.6862L568.04 67.6823L567.818 67.0714ZM545.45 59.1994L546.012 58.8727L546.012 58.8727L545.45 59.1994ZM543.312 53.1514V52.5014H542.548L542.67 53.2552L543.312 53.1514ZM582.986 51.9994L583.427 52.4771L583.437 52.4683L583.446 52.4591L582.986 51.9994ZM581.354 35.5834L580.767 35.8626L580.773 35.8741L581.354 35.5834ZM573.194 26.4634L572.85 27.0147L572.857 27.019L573.194 26.4634ZM546.89 26.5594L547.214 27.1233L547.221 27.1192L546.89 26.5594ZM537.674 35.9674L537.106 35.6518L537.104 35.6549L537.674 35.9674ZM537.866 63.6154L537.302 63.938L537.308 63.9485L537.866 63.6154ZM545.066 40.3834L545.65 40.6687L545.653 40.6634L545.066 40.3834ZM543.422 45.4714L542.782 45.3558L542.643 46.1214H543.422V45.4714ZM550.922 33.7594L550.584 33.2044L550.578 33.2082L550.922 33.7594ZM573.674 39.6154L573.087 39.8943L573.09 39.9001L573.674 39.6154ZM575.394 45.4714V46.1214H576.136L576.038 45.386L575.394 45.4714ZM604.307 35.8714L603.848 35.4118L603.84 35.4197L604.307 35.8714ZM623.123 32.1274L623.269 31.4941L623.261 31.4922L623.253 31.4904L623.123 32.1274ZM627.251 31.3594L627.679 31.8486L627.683 31.8452L627.251 31.3594ZM628.403 29.2474L627.774 29.0843L627.771 29.0977L627.768 29.1112L628.403 29.2474ZM626.195 24.8314L625.826 25.3665L625.837 25.3738L625.847 25.3806L626.195 24.8314ZM607.091 25.5994L607.409 26.1666L607.409 26.1666L607.091 25.5994ZM601.523 30.0608H600.873V31.777L602.01 30.4914L601.523 30.0608ZM600.275 24.7354L599.798 25.1763L599.815 25.1954L599.834 25.213L600.275 24.7354ZM593.171 74.8474L592.712 75.3071L592.721 75.3162L592.73 75.3251L593.171 74.8474ZM600.275 74.7514L599.816 74.2918L599.806 74.301L599.798 74.3106L600.275 74.7514ZM132.635 73.4918C136.773 75.8561 141.397 77.0334 146.494 77.0334V75.7334C141.606 75.7334 137.207 74.6068 133.28 72.3631L132.635 73.4918ZM122.893 63.6566C125.316 67.7817 128.562 71.0609 132.625 73.4856L133.291 72.3693C129.418 70.058 126.328 66.9372 124.014 62.9983L122.893 63.6566ZM119.348 49.6954C119.348 54.8542 120.524 59.5111 122.889 63.6499L124.018 63.005C121.775 59.0798 120.648 54.6487 120.648 49.6954H119.348ZM122.592 35.854C120.424 39.9273 119.348 44.5464 119.348 49.6954H120.648C120.648 44.7325 121.683 40.3276 123.739 36.4648L122.592 35.854ZM131.655 26.1032C127.842 28.4699 124.821 31.724 122.594 35.8507L123.738 36.4681C125.863 32.5309 128.73 29.4489 132.34 27.2077L131.655 26.1032ZM144.574 22.4534C139.786 22.4534 135.471 23.6687 131.648 26.1074L132.347 27.2034C135.948 24.9062 140.018 23.7534 144.574 23.7534V22.4534ZM155.328 24.9221C152.033 23.2744 148.445 22.4534 144.574 22.4534V23.7534C148.255 23.7534 151.642 24.5324 154.747 26.0848L155.328 24.9221ZM163.607 31.4305C161.369 28.6656 158.603 26.494 155.319 24.9174L154.756 26.0894C157.872 27.5849 160.483 29.6373 162.596 32.2484L163.607 31.4305ZM162.452 5.91944V31.8394H163.752V5.91944H162.452ZM163.986 1.90782C162.948 2.94549 162.452 4.30518 162.452 5.91944H163.752C163.752 4.58969 164.151 3.58138 164.905 2.82706L163.986 1.90782ZM167.998 0.373438C166.438 0.373438 165.092 0.875336 164.002 1.89225L164.889 2.84262C165.72 2.06754 166.741 1.67344 167.998 1.67344V0.373438ZM172.009 1.90782C170.972 0.870148 169.612 0.373438 167.998 0.373438V1.67344C169.327 1.67344 170.336 2.07273 171.09 2.82706L172.009 1.90782ZM173.544 5.91944C173.544 4.30518 173.047 2.94549 172.009 1.90782L171.09 2.82706C171.844 3.58138 172.244 4.58969 172.244 5.91944H173.544ZM173.544 42.9996V5.91944H172.244V42.9996H173.544ZM172.896 42.3496H172.894V43.6496H172.896V42.3496ZM173.546 72.308V42.9996H172.246V72.308H173.546ZM168.204 77.6495C171.154 77.6495 173.546 75.258 173.546 72.308H172.246C172.246 74.5401 170.436 76.3495 168.204 76.3495L168.204 77.6495ZM162.862 72.308C162.862 75.258 165.254 77.6495 168.204 77.6495L168.204 76.3495C165.972 76.3495 164.162 74.54 164.162 72.308H162.862ZM162.862 70.3773V72.308H164.162V70.3773H162.862ZM160.267 73.4856C161.576 72.7043 162.798 71.8337 163.932 70.8735L163.093 69.8812C162.014 70.7941 160.85 71.6235 159.601 72.3693L160.267 73.4856ZM146.494 77.0334C151.59 77.0334 156.184 75.8561 160.26 73.4896L159.607 72.3653C155.747 74.6068 151.381 75.7334 146.494 75.7334V77.0334ZM154.895 64.8821C152.446 66.3519 149.651 67.0934 146.494 67.0934V68.3934C149.864 68.3934 152.894 67.599 155.564 65.9968L154.895 64.8821ZM160.705 58.6049C159.284 61.2603 157.346 63.3505 154.885 64.8882L155.574 65.9906C158.234 64.3284 160.327 62.0666 161.851 59.218L160.705 58.6049ZM162.836 49.6954C162.836 52.99 162.122 55.9552 160.705 58.6049L161.851 59.218C163.378 56.3637 164.136 53.1849 164.136 49.6954H162.836ZM160.708 40.7916C162.121 43.3722 162.836 46.3344 162.836 49.6954H164.136C164.136 46.1445 163.379 42.9626 161.848 40.1672L160.708 40.7916ZM154.895 34.7008C157.354 36.1758 159.289 38.202 160.708 40.7916L161.848 40.1672C160.322 37.3809 158.226 35.1831 155.564 33.5861L154.895 34.7008ZM146.494 32.3934C149.646 32.3934 152.437 33.1644 154.885 34.6946L155.574 33.5922C152.902 31.9224 149.869 31.0934 146.494 31.0934V32.3934ZM138.096 34.6984C140.614 33.1632 143.408 32.3934 146.494 32.3934V31.0934C143.179 31.0934 140.15 31.9237 137.419 33.5885L138.096 34.6984ZM132.178 40.8019C133.661 38.2069 135.631 36.1773 138.092 34.7008L137.423 33.5861C134.764 35.1815 132.638 37.376 131.049 40.1569L132.178 40.8019ZM130.056 49.6954C130.056 46.3344 130.771 43.3722 132.184 40.7916L131.044 40.1672C129.513 42.9626 128.756 46.1445 128.756 49.6954H130.056ZM132.187 58.6049C130.77 55.9552 130.056 52.99 130.056 49.6954H128.756C128.756 53.1849 129.514 56.3637 131.041 59.218L132.187 58.6049ZM138.102 64.8882C135.639 63.3489 133.666 61.2553 132.181 58.5947L131.046 59.2282C132.633 62.0716 134.756 64.33 137.413 65.9906L138.102 64.8882ZM146.494 67.0934C143.403 67.0934 140.605 66.3531 138.086 64.8785L137.429 66.0004C140.158 67.5978 143.185 68.3934 146.494 68.3934V67.0934ZM71.921 74.2704C75.5444 76.1809 79.6183 77.1294 84.1282 77.1294V75.8294C79.8061 75.8294 75.944 74.922 72.5274 73.1205L71.921 74.2704ZM63.4014 65.6616C65.5048 69.4082 68.3411 72.2817 71.9085 74.2636L72.5399 73.1272C69.1953 71.2692 66.5276 68.5746 64.535 65.0252L63.4014 65.6616ZM60.3422 51.9034C60.3422 57.2944 61.3489 61.8877 63.3972 65.654L64.5392 65.0329C62.6195 61.5032 61.6422 57.1365 61.6422 51.9034H60.3422ZM60.3422 28.2874V51.9034H61.6422V28.2874H60.3422ZM61.8766 24.3718C60.8446 25.4038 60.3422 26.728 60.3422 28.2874H61.6422C61.6422 27.0308 62.0358 26.0511 62.7958 25.2911L61.8766 24.3718ZM65.8882 22.7414C64.3149 22.7414 62.9634 23.285 61.8766 24.3718L62.7958 25.2911C63.629 24.4579 64.6454 24.0414 65.8882 24.0414V22.7414ZM69.8194 24.3879C68.7909 23.2859 67.4618 22.7414 65.8882 22.7414V24.0414C67.1306 24.0414 68.1055 24.4569 68.869 25.2749L69.8194 24.3879ZM71.4342 28.2874C71.4342 26.7138 70.8897 25.3848 69.7877 24.3562L68.9007 25.3066C69.7187 26.0701 70.1342 27.045 70.1342 28.2874H71.4342ZM71.4342 51.9034V28.2874H70.1342V51.9034H71.4342ZM73.3655 60.5106C72.0919 58.2666 71.4342 55.4095 71.4342 51.9034H70.1342C70.1342 55.5654 70.8205 58.6603 72.2349 61.1523L73.3655 60.5106ZM78.5629 65.4341C76.3761 64.3407 74.6444 62.7029 73.3617 60.5039L72.2387 61.159C73.644 63.568 75.5603 65.3862 77.9815 66.5968L78.5629 65.4341ZM86.0482 66.9974C83.2516 66.9974 80.7563 66.4697 78.5497 65.4277L77.9946 66.6032C80.3961 67.7372 83.0848 68.2974 86.0482 68.2974V66.9974ZM93.0465 65.4376C91.0402 66.4712 88.7131 66.9974 86.0482 66.9974V68.2974C88.8873 68.2974 91.4242 67.7357 93.6419 66.5933L93.0465 65.4376ZM97.9931 61.2304C96.7802 62.9891 95.1394 64.3911 93.0535 65.4341L93.6349 66.5968C95.901 65.4638 97.7162 63.9218 99.0633 61.9685L97.9931 61.2304ZM99.7982 55.3594C99.7982 57.5347 99.1965 59.4854 97.9931 61.2304L99.0633 61.9685C100.42 60.0014 101.098 57.7922 101.098 55.3594H99.7982ZM99.7982 28.2874V55.3594H101.098V28.2874H99.7982ZM101.333 24.2758C100.295 25.3135 99.7982 26.6732 99.7982 28.2874H101.098C101.098 26.9577 101.497 25.9494 102.252 25.1951L101.333 24.2758ZM105.344 22.7414C103.785 22.7414 102.438 23.2433 101.349 24.2602L102.236 25.2106C103.066 24.4355 104.088 24.0414 105.344 24.0414V22.7414ZM109.356 24.2758C108.318 23.2381 106.958 22.7414 105.344 22.7414V24.0414C106.674 24.0414 107.682 24.4407 108.437 25.1951L109.356 24.2758ZM110.89 28.2874C110.89 26.6732 110.393 25.3135 109.356 24.2758L108.437 25.1951C109.191 25.9494 109.59 26.9577 109.59 28.2874H110.89ZM110.89 71.1034V28.2874H109.59V71.1034H110.89ZM109.371 75.0989C110.388 74.0094 110.89 72.6631 110.89 71.1034H109.59C109.59 72.3598 109.196 73.3815 108.421 74.2119L109.371 75.0989ZM105.344 76.6494C106.958 76.6494 108.318 76.1527 109.356 75.1151L108.437 74.1958C107.682 74.9502 106.674 75.3494 105.344 75.3494V76.6494ZM101.349 75.1306C102.438 76.1475 103.785 76.6494 105.344 76.6494V75.3494C104.088 75.3494 103.066 74.9553 102.236 74.1803L101.349 75.1306ZM99.7982 71.1034C99.7982 72.6631 100.3 74.0094 101.317 75.0989L102.267 74.2119C101.492 73.3815 101.098 72.3598 101.098 71.1034H99.7982ZM99.7982 70.0562V71.1034H101.098V70.0562H99.7982ZM95.8642 74.2657C97.7666 73.2247 99.449 71.9751 100.908 70.5157L99.9885 69.5966C98.6218 70.9638 97.0402 72.1403 95.2402 73.1252L95.8642 74.2657ZM84.1282 77.1294C88.5129 77.1294 92.4324 76.1796 95.8688 74.2631L95.2356 73.1277C92.016 74.9233 88.3195 75.8294 84.1282 75.8294V77.1294ZM209.194 75.7334C204.306 75.7334 199.907 74.6068 195.98 72.3631L195.335 73.4918C199.473 75.8561 204.097 77.0334 209.194 77.0334V75.7334ZM222.307 72.3653C218.447 74.6068 214.081 75.7334 209.194 75.7334V77.0334C214.29 77.0334 218.884 75.8561 222.96 73.4896L222.307 72.3653ZM225.789 69.8843C224.711 70.7959 223.549 71.6243 222.301 72.3693L222.967 73.4856C224.275 72.7052 225.495 71.8356 226.629 70.8767L225.789 69.8843ZM226.859 72.308V70.3805H225.559V72.308H226.859ZM230.9 76.3495C228.668 76.3495 226.859 74.54 226.859 72.308H225.559C225.559 75.258 227.95 77.6495 230.9 77.6495L230.9 76.3495ZM234.942 72.308C234.942 74.5401 233.132 76.3495 230.9 76.3495L230.9 77.6495C233.85 77.6495 236.242 75.258 236.242 72.308H234.942ZM234.942 50.0447V72.308H236.242V50.0447H234.942ZM234.944 49.6954C234.944 49.8098 234.943 49.9239 234.942 50.0376L236.242 50.0518C236.243 49.9332 236.244 49.8145 236.244 49.6954H234.944ZM234.944 5.91944V49.6954H236.244V5.91944H234.944ZM233.79 2.82706C234.544 3.58139 234.944 4.58969 234.944 5.91944H236.244C236.244 4.30518 235.747 2.94549 234.709 1.90782L233.79 2.82706ZM230.698 1.67344C232.027 1.67344 233.036 2.07273 233.79 2.82706L234.709 1.90782C233.672 0.870147 232.312 0.373438 230.698 0.373438V1.67344ZM227.589 2.84262C228.42 2.06754 229.441 1.67344 230.698 1.67344V0.373438C229.138 0.373438 227.792 0.875336 226.702 1.89225L227.589 2.84262ZM226.452 5.91944C226.452 4.58969 226.851 3.58139 227.605 2.82706L226.686 1.90782C225.648 2.94549 225.152 4.30518 225.152 5.91944H226.452ZM226.452 31.8394V5.91944H225.152V31.8394H226.452ZM217.456 26.0894C220.572 27.5849 223.183 29.6373 225.296 32.2484L226.307 31.4305C224.069 28.6656 221.303 26.494 218.019 24.9174L217.456 26.0894ZM207.274 23.7534C210.955 23.7534 214.342 24.5324 217.447 26.0848L218.028 24.9221C214.733 23.2744 211.145 22.4534 207.274 22.4534V23.7534ZM195.047 27.2034C198.648 24.9062 202.718 23.7534 207.274 23.7534V22.4534C202.486 22.4534 198.171 23.6687 194.348 26.1074L195.047 27.2034ZM186.438 36.4681C188.563 32.5309 191.43 29.4489 195.04 27.2077L194.355 26.1032C190.542 28.4699 187.521 31.724 185.294 35.8507L186.438 36.4681ZM183.348 49.6954C183.348 44.7325 184.383 40.3276 186.439 36.4648L185.292 35.854C183.124 39.9273 182.048 44.5464 182.048 49.6954H183.348ZM186.718 63.005C184.475 59.0798 183.348 54.6487 183.348 49.6954H182.048C182.048 54.8542 183.224 59.5111 185.589 63.6499L186.718 63.005ZM195.991 72.3693C192.118 70.058 189.028 66.9372 186.714 62.9983L185.593 63.6566C188.016 67.7817 191.262 71.0609 195.325 73.4856L195.991 72.3693ZM209.194 68.3934C212.564 68.3934 215.594 67.599 218.264 65.9968L217.595 64.8821C215.146 66.3519 212.351 67.0934 209.194 67.0934V68.3934ZM200.129 66.0004C202.858 67.5978 205.885 68.3934 209.194 68.3934V67.0934C206.103 67.0934 203.305 66.3531 200.786 64.8785L200.129 66.0004ZM193.746 59.2282C195.333 62.0716 197.456 64.33 200.113 65.9906L200.802 64.8882C198.339 63.3489 196.366 61.2553 194.881 58.5947L193.746 59.2282ZM191.456 49.6954C191.456 53.1849 192.214 56.3637 193.741 59.218L194.887 58.6049C193.47 55.9552 192.756 52.99 192.756 49.6954H191.456ZM193.744 40.1672C192.213 42.9626 191.456 46.1445 191.456 49.6954H192.756C192.756 46.3344 193.471 43.3722 194.884 40.7916L193.744 40.1672ZM200.123 33.5861C197.464 35.1815 195.338 37.376 193.749 40.1569L194.878 40.8019C196.361 38.2069 198.331 36.1773 200.792 34.7008L200.123 33.5861ZM209.194 31.0934C205.879 31.0934 202.85 31.9237 200.119 33.5885L200.796 34.6984C203.314 33.1632 206.108 32.3934 209.194 32.3934V31.0934ZM218.274 33.5922C215.602 31.9224 212.569 31.0934 209.194 31.0934V32.3934C212.346 32.3934 215.137 33.1644 217.585 34.6946L218.274 33.5922ZM224.548 40.1672C223.022 37.3809 220.926 35.1831 218.264 33.5861L217.595 34.7008C220.054 36.1758 221.989 38.202 223.408 40.7916L224.548 40.1672ZM226.836 49.6954C226.836 46.1445 226.079 42.9626 224.548 40.1672L223.408 40.7916C224.821 43.3722 225.536 46.3344 225.536 49.6954H226.836ZM224.551 59.218C226.078 56.3637 226.836 53.1849 226.836 49.6954H225.536C225.536 52.99 224.822 55.9552 223.405 58.6049L224.551 59.218ZM218.274 65.9906C220.934 64.3284 223.027 62.0666 224.551 59.218L223.405 58.6049C221.984 61.2603 220.046 63.3505 217.585 64.8882L218.274 65.9906ZM279.317 73.5957C283.583 75.8928 288.427 77.0334 293.833 77.0334V75.7334C288.615 75.7334 283.987 74.6341 279.933 72.4511L279.317 73.5957ZM269.371 63.9485C271.798 68.0156 275.113 71.2314 279.306 73.59L279.943 72.4569C275.944 70.2075 272.796 67.1512 270.487 63.2823L269.371 63.9485ZM265.823 49.7914C265.823 55.0751 266.998 59.7967 269.364 63.9379L270.493 63.2929C268.251 59.3702 267.123 54.8758 267.123 49.7914H265.823ZM269.167 35.6549C266.93 39.733 265.823 44.4518 265.823 49.7914H267.123C267.123 44.6351 268.191 40.1379 270.307 36.28L269.167 35.6549ZM278.629 25.9956C274.62 28.2961 271.464 31.519 269.168 35.6518L270.305 36.2831C272.489 32.3519 275.477 29.3028 279.276 27.1232L278.629 25.9956ZM292.393 22.4534C287.234 22.4534 282.638 23.63 278.622 25.9997L279.283 27.1192C283.076 24.8809 287.439 23.7534 292.393 23.7534V22.4534ZM305.601 25.9122C301.896 23.5968 297.484 22.4534 292.393 22.4534V23.7534C297.285 23.7534 301.449 24.8501 304.912 27.0146L305.601 25.9122ZM314.004 35.3044C312.095 31.2895 309.29 28.1518 305.594 25.9078L304.919 27.019C308.391 29.1271 311.026 32.0693 312.83 35.8625L314.004 35.3044ZM316.947 48.9274C316.947 43.7884 315.971 39.2377 313.998 35.2927L312.835 35.8741C314.703 39.6092 315.647 43.9545 315.647 48.9274H316.947ZM315.508 52.4591C316.467 51.5007 316.947 50.3094 316.947 48.9274H315.647C315.647 49.9775 315.295 50.8342 314.589 51.5398L315.508 52.4591ZM311.881 53.8014C313.301 53.8014 314.522 53.3705 315.49 52.4771L314.608 51.5218C313.912 52.1643 313.02 52.5014 311.881 52.5014V53.8014ZM275.374 53.8014H311.881V52.5014H275.374V53.8014ZM278.075 58.8727C277.044 57.1006 276.357 55.1606 276.016 53.0477L274.732 53.2552C275.098 55.519 275.837 57.611 276.951 59.5261L278.075 58.8727ZM284.458 65.1623C281.74 63.618 279.616 61.5236 278.075 58.8727L276.951 59.5261C278.61 62.3793 280.901 64.6368 283.816 66.2926L284.458 65.1623ZM293.833 67.4774C290.283 67.4774 287.164 66.6999 284.458 65.1623L283.816 66.2926C286.741 67.9549 290.087 68.7774 293.833 68.7774V67.4774ZM299.669 66.4567C297.683 67.1395 295.739 67.4774 293.833 67.4774V68.7774C295.895 68.7774 297.982 68.4114 300.092 67.6861L299.669 66.4567ZM304.579 63.9594C303.366 64.869 301.733 65.7063 299.659 66.4606L300.103 67.6823C302.253 66.9006 304.011 66.0098 305.359 64.9994L304.579 63.9594ZM308.041 62.7734C306.801 62.7734 305.645 63.1776 304.584 63.9553L305.353 65.0036C306.213 64.3732 307.104 64.0734 308.041 64.0734V62.7734ZM311.437 63.8872C310.47 63.0692 309.312 62.7018 308.005 62.7744L308.077 64.0724C309.074 64.0171 309.9 64.2897 310.597 64.8796L311.437 63.8872ZM313.394 67.5154C313.318 66.1475 312.63 64.9398 311.447 63.896L310.587 64.8708C311.58 65.7471 312.044 66.6513 312.096 67.5875L313.394 67.5154ZM311.604 71.0438C312.826 70.1091 313.472 68.9246 313.394 67.5154L312.096 67.5875C312.145 68.4823 311.768 69.2817 310.814 70.0111L311.604 71.0438ZM303.254 75.3681C306.574 74.2616 309.365 72.8214 311.613 71.0365L310.804 70.0184C308.7 71.6895 306.052 73.0653 302.843 74.1348L303.254 75.3681ZM293.833 77.0334C296.858 77.0334 300 76.4744 303.258 75.3668L302.839 74.136C299.697 75.2045 296.696 75.7334 293.833 75.7334V77.0334ZM276.124 45.5871C276.443 43.8213 276.973 42.1828 277.713 40.6687L276.545 40.0982C275.75 41.7258 275.184 43.4793 274.844 45.3558L276.124 45.5871ZM307.457 44.8214H275.484V46.1214H307.457V44.8214ZM305.152 39.9001C305.984 41.6062 306.538 43.4901 306.812 45.5568L308.101 45.386C307.81 43.1931 307.219 41.173 306.321 39.3308L305.152 39.9001ZM300.196 34.1106C302.33 35.5135 303.982 37.4354 305.15 39.8943L306.324 39.3365C305.06 36.6755 303.255 34.5654 300.91 33.0242L300.196 34.1106ZM292.393 32.0094C295.491 32.0094 298.081 32.7209 300.196 34.1106L300.91 33.0242C298.545 31.47 295.695 30.7094 292.393 30.7094V32.0094ZM283.323 34.3144C285.827 32.7873 288.842 32.0094 292.393 32.0094V30.7094C288.648 30.7094 285.39 31.5315 282.646 33.2045L283.323 34.3144ZM277.715 40.6634C279.008 37.9551 280.878 35.8428 283.329 34.3106L282.64 33.2082C279.972 34.8761 277.937 37.1798 276.542 40.1035L277.715 40.6634ZM343.09 75.7334C338.675 75.7334 334.589 75.0715 330.824 73.7539L330.395 74.9809C334.311 76.3514 338.544 77.0334 343.09 77.0334V75.7334ZM354.142 73.6827C351.246 75.0384 347.572 75.7334 343.09 75.7334V77.0334C347.696 77.0334 351.573 76.3205 354.693 74.8601L354.142 73.6827ZM360.784 68.2537C359.328 70.4994 357.129 72.3137 354.147 73.6805L354.689 74.8623C357.85 73.4132 360.26 71.4515 361.875 68.9612L360.784 68.2537ZM363.08 60.6394C363.08 63.4579 362.316 65.9864 360.791 68.2435L361.868 68.9713C363.543 66.4925 364.38 63.709 364.38 60.6394H363.08ZM361.357 54.2672C362.499 56.0704 363.08 58.1866 363.08 60.6394H364.38C364.38 57.9723 363.745 55.6084 362.455 53.5717L361.357 54.2672ZM355.557 49.3115C358.305 50.7482 360.215 52.4055 361.352 54.2591L362.46 53.5798C361.164 51.4654 359.042 49.6667 356.159 48.1594L355.557 49.3115ZM344.402 45.7248C349.171 46.6786 352.878 47.8787 355.551 49.3086L356.164 48.1623C353.334 46.6482 349.488 45.4163 344.657 44.4501L344.402 45.7248ZM336.42 43.5804C338.265 44.3051 340.932 45.0179 344.4 45.7244L344.659 44.4505C341.215 43.7489 338.635 43.0538 336.895 42.3704L336.42 43.5804ZM332.481 40.8572C333.225 41.899 334.573 42.7893 336.402 43.5729L336.914 42.378C335.158 41.6255 334.075 40.8519 333.539 40.1016L332.481 40.8572ZM331.496 37.3114C331.496 38.5777 331.814 39.7498 332.452 40.8139L333.567 40.145C333.054 39.2891 332.796 38.3492 332.796 37.3114H331.496ZM334.735 32.5061C333.701 33.023 332.885 33.6809 332.329 34.4973C331.768 35.3189 331.496 36.265 331.496 37.3114H332.796C332.796 36.5019 333.003 35.816 333.403 35.2296C333.806 34.638 334.43 34.1119 335.316 33.6688L334.735 32.5061ZM342.226 30.9974C339.338 30.9974 336.836 31.4895 334.743 32.5023L335.309 33.6725C337.184 32.7654 339.481 32.2974 342.226 32.2974V30.9974ZM348.85 31.8906C346.919 31.2911 344.707 30.9974 342.226 30.9974V32.2974C344.608 32.2974 346.685 32.5797 348.465 33.1322L348.85 31.8906ZM354.292 35.2105C352.629 33.6145 350.816 32.5006 348.85 31.8906L348.465 33.1322C350.212 33.6743 351.854 34.6724 353.392 36.1483L354.292 35.2105ZM357.51 36.7679C356.213 36.5321 355.146 36.0076 354.285 35.2043L353.398 36.1546C354.457 37.1432 355.758 37.7707 357.277 38.047L357.51 36.7679ZM360.673 36.1998C359.813 36.7917 358.777 36.9983 357.51 36.7679L357.277 38.047C358.827 38.3286 360.223 38.0872 361.41 37.2711L360.673 36.1998ZM362.025 33.9133C361.974 34.7764 361.552 35.54 360.652 36.2154L361.432 37.2554C362.579 36.3949 363.245 35.3025 363.323 33.9896L362.025 33.9133ZM360.937 31.1155C361.742 32.0362 362.078 32.9631 362.025 33.9154L363.323 33.9875C363.398 32.6358 362.901 31.3867 361.915 30.2594L360.937 31.1155ZM353.402 25.7205C356.582 27.0297 359.079 28.8257 360.921 31.0968L361.931 30.2781C359.932 27.8132 357.246 25.8972 353.897 24.5184L353.402 25.7205ZM342.418 23.7534C346.573 23.7534 350.231 24.4145 353.402 25.7205L353.897 24.5184C350.541 23.1364 346.71 22.4534 342.418 22.4534V23.7534ZM333.231 25.3467C336.166 24.2849 339.228 23.7534 342.418 23.7534V22.4534C339.08 22.4534 335.869 23.01 332.789 24.1242L333.231 25.3467ZM326.105 29.9655C327.943 27.8823 330.308 26.3418 333.219 25.3508L332.8 24.1201C329.695 25.177 327.132 26.8366 325.13 29.1054L326.105 29.9655ZM323.388 37.5994C323.388 34.4723 324.303 31.9478 326.099 29.9727L325.137 29.0982C323.092 31.347 322.088 34.1986 322.088 37.5994H323.388ZM327.49 46.5216C324.742 44.0796 323.388 41.1179 323.388 37.5994H322.088C322.088 41.505 323.613 44.8153 326.626 47.4933L327.49 46.5216ZM341.296 52.1298C334.876 50.8585 330.303 48.9676 327.484 46.5169L326.631 47.4979C329.701 50.1672 334.536 52.1164 341.043 53.4051L341.296 52.1298ZM351.835 55.7056C349.846 54.1967 346.285 53.0253 341.285 52.1277L341.055 53.4072C346.038 54.3016 349.326 55.4342 351.049 56.7413L351.835 55.7056ZM354.875 61.2371C354.948 59.0503 353.872 57.1999 351.826 55.6993L351.057 56.7476C352.851 58.063 353.631 59.5406 353.576 61.1938L354.875 61.2371ZM351.493 66.4736C353.618 65.1712 354.802 63.4235 354.875 61.2371L353.576 61.1938C353.521 62.8473 352.657 64.2357 350.814 65.3652L351.493 66.4736ZM342.706 68.3934C346.471 68.3934 349.431 67.78 351.501 66.4686L350.806 65.3703C349.037 66.4909 346.365 67.0934 342.706 67.0934V68.3934ZM334.389 66.8065C336.91 67.8678 339.685 68.3934 342.706 68.3934V67.0934C339.838 67.0934 337.237 66.5951 334.894 65.6084L334.389 66.8065ZM328.973 63.1849C330.146 64.4952 331.964 65.6925 334.37 66.7981L334.913 65.6168C332.583 64.5464 330.946 63.4397 329.942 62.318L328.973 63.1849ZM326.129 61.7662C327.248 61.8782 328.192 62.3476 328.983 63.1949L329.933 62.3079C328.932 61.2352 327.699 60.6167 326.258 60.4727L326.129 61.7662ZM322.856 62.875C324.043 61.9255 325.111 61.6066 326.092 61.7615L326.295 60.4774C324.844 60.2483 323.417 60.7614 322.044 61.8599L322.856 62.875ZM321.173 65.7234C321.341 64.5496 321.89 63.6134 322.845 62.8838L322.055 61.8511C320.833 62.7855 320.103 64.0253 319.886 65.5395L321.173 65.7234ZM322.252 68.6429C321.407 67.7417 321.069 66.7711 321.176 65.6961L319.883 65.5668C319.734 67.0518 320.228 68.3852 321.304 69.532L322.252 68.6429ZM330.837 73.7584C327.119 72.3722 324.265 70.6551 322.237 68.6278L321.318 69.5471C323.515 71.7437 326.548 73.5467 330.383 74.9765L330.837 73.7584ZM380.453 51.9994V71.1994H381.753V51.9994H380.453ZM380.453 44.1274V51.9994H381.753V44.1274H380.453ZM382.494 37.5096C381.129 39.4203 380.453 41.6347 380.453 44.1274H381.753C381.753 41.8841 382.356 39.9385 383.552 38.2652L382.494 37.5096ZM387.916 32.8901C385.65 34.0231 383.835 35.5651 382.488 37.5184L383.558 38.2565C384.771 36.4978 386.411 35.0958 388.497 34.0528L387.916 32.8901ZM395.503 31.1894C392.725 31.1894 390.191 31.7524 387.916 32.8901L388.497 34.0528C390.574 33.0145 392.905 32.4894 395.503 32.4894V31.1894ZM403.576 32.9894C401.23 31.7827 398.533 31.1894 395.503 31.1894V32.4894C398.361 32.4894 400.848 33.0481 402.981 34.1455L403.576 32.9894ZM409.312 38.3279C407.905 35.9161 405.985 34.1265 403.556 32.9797L403.001 34.1552C405.181 35.1844 406.908 36.7868 408.189 38.983L409.312 38.3279ZM411.417 47.5834C411.417 43.8609 410.732 40.7613 409.312 38.3279L408.189 38.983C409.458 41.1575 410.117 44.01 410.117 47.5834H411.417ZM411.417 71.1994V47.5834H410.117V71.1994H411.417ZM412.586 74.3079C411.811 73.4775 411.417 72.4558 411.417 71.1994H410.117C410.117 72.7591 410.619 74.1054 411.636 75.1949L412.586 74.3079ZM415.663 75.4454C414.406 75.4454 413.385 75.0513 412.554 74.2763L411.667 75.2266C412.757 76.2435 414.103 76.7454 415.663 76.7454V75.4454ZM418.659 74.2918C417.899 75.0518 416.919 75.4454 415.663 75.4454V76.7454C417.222 76.7454 418.546 76.243 419.578 75.2111L418.659 74.2918ZM419.909 71.1994C419.909 72.4422 419.492 73.4587 418.659 74.2918L419.578 75.2111C420.665 74.1242 421.209 72.7727 421.209 71.1994H419.909ZM419.909 47.5834V71.1994H421.209V47.5834H419.909ZM416.92 34.4616C418.901 37.9896 419.909 42.3534 419.909 47.5834H421.209C421.209 42.1895 420.169 37.5932 418.053 33.8252L416.92 34.4616ZM408.928 26.4624C412.329 28.2559 414.99 30.9134 416.916 34.454L418.058 33.8329C416.015 30.0774 413.172 27.231 409.534 25.3125L408.928 26.4624ZM397.423 23.6574C401.741 23.6574 405.566 24.5953 408.915 26.4556L409.546 25.3192C405.983 23.3395 401.936 22.3574 397.423 22.3574V23.6574ZM386.311 26.3617C389.598 24.5627 393.297 23.6574 397.423 23.6574V22.3574C393.1 22.3574 389.183 23.3081 385.687 25.2212L386.311 26.3617ZM381.558 29.866C382.939 28.5089 384.522 27.3405 386.311 26.3617L385.687 25.2212C383.798 26.2548 382.117 27.4938 380.647 28.9391L381.558 29.866ZM380.453 28.3834V29.4025H381.753V28.3834H380.453ZM380.453 5.91944V28.3834H381.753V5.91944H380.453ZM379.299 2.82706C380.053 3.58139 380.453 4.58969 380.453 5.91944H381.753C381.753 4.30518 381.256 2.94549 380.218 1.90782L379.299 2.82706ZM376.207 1.67344C377.536 1.67344 378.545 2.07273 379.299 2.82706L380.218 1.90782C379.181 0.870148 377.821 0.373438 376.207 0.373438V1.67344ZM373.098 2.84262C373.929 2.06754 374.95 1.67344 376.207 1.67344V0.373438C374.647 0.373438 373.301 0.875335 372.211 1.89225L373.098 2.84262ZM371.961 5.91944C371.961 4.58969 372.36 3.58139 373.114 2.82706L372.195 1.90782C371.157 2.94549 370.661 4.30518 370.661 5.91944H371.961ZM371.961 28.3834V5.91944H370.661V28.3834H371.961ZM371.961 51.9994V28.3834H370.661V51.9994H371.961ZM371.961 71.1994V51.9994H370.661V71.1994H371.961ZM373.13 74.3079C372.355 73.4775 371.961 72.4558 371.961 71.1994H370.661C370.661 72.7591 371.163 74.1054 372.18 75.1949L373.13 74.3079ZM376.207 75.4454C374.95 75.4454 373.929 75.0513 373.098 74.2763L372.211 75.2266C373.301 76.2435 374.647 76.7454 376.207 76.7454V75.4454ZM379.299 74.2918C378.545 75.0461 377.536 75.4454 376.207 75.4454V76.7454C377.821 76.7454 379.181 76.2487 380.218 75.2111L379.299 74.2918ZM380.453 71.1994C380.453 72.4558 380.059 73.4775 379.284 74.3079L380.234 75.1949C381.251 74.1054 381.753 72.7591 381.753 71.1994H380.453ZM453.93 75.7334C449.37 75.7334 445.299 74.6108 441.697 72.3752L441.011 73.4797C444.833 75.8521 449.146 77.0334 453.93 77.0334V75.7334ZM466.163 72.3752C462.561 74.6108 458.49 75.7334 453.93 75.7334V77.0334C458.714 77.0334 463.027 75.8521 466.849 73.4797L466.163 72.3752ZM471.954 67.2272C470.318 69.2395 468.387 70.9566 466.156 72.3795L466.856 73.4754C469.201 71.9792 471.238 70.1694 472.962 68.047L471.954 67.2272ZM473.108 71.1994V67.6371H471.808V71.1994H473.108ZM474.277 74.3079C473.502 73.4775 473.108 72.4558 473.108 71.1994H471.808C471.808 72.7591 472.31 74.1054 473.327 75.1949L474.277 74.3079ZM477.354 75.4454C476.098 75.4454 475.076 75.0513 474.245 74.2763L473.358 75.2266C474.448 76.2435 475.794 76.7454 477.354 76.7454V75.4454ZM480.35 74.2918C479.59 75.0518 478.611 75.4454 477.354 75.4454V76.7454C478.913 76.7454 480.238 76.243 481.27 75.2111L480.35 74.2918ZM481.6 71.1994C481.6 72.4422 481.183 73.4587 480.35 74.2918L481.27 75.2111C482.356 74.1242 482.9 72.7727 482.9 71.1994H481.6ZM481.6 49.7914V71.1994H482.9V49.7914H481.6ZM478.137 36.4886C480.442 40.4127 481.6 44.8414 481.6 49.7914H482.9C482.9 44.6294 481.69 39.9701 479.258 35.8303L478.137 36.4886ZM468.964 27.2175C472.831 29.4633 475.886 32.5481 478.134 36.4819L479.262 35.8369C476.902 31.7068 473.685 28.4556 469.616 26.0933L468.964 27.2175ZM455.85 23.7534C460.734 23.7534 465.098 24.9105 468.957 27.2136L469.623 26.0973C465.546 23.6644 460.949 22.4534 455.85 22.4534V23.7534ZM442.643 27.2159C446.569 24.9105 450.966 23.7534 455.85 23.7534V22.4534C450.75 22.4534 446.123 23.6644 441.985 26.095L442.643 27.2159ZM433.37 36.4886C435.683 32.5512 438.771 29.4642 442.64 27.2175L441.988 26.0933C437.921 28.4546 434.673 31.7037 432.249 35.8303L433.37 36.4886ZM430.004 49.7914C430.004 44.8382 431.131 40.4071 433.374 36.4819L432.246 35.8369C429.881 39.9758 428.704 44.6326 428.704 49.7914H430.004ZM433.098 63.1218C431.04 59.1928 430.004 54.7542 430.004 49.7914H428.704C428.704 54.9407 429.78 59.59 431.946 63.725L433.098 63.1218ZM441.704 72.3795C438.086 70.0719 435.217 66.9859 433.092 63.1109L431.952 63.736C434.179 67.7969 437.198 71.047 441.004 73.4754L441.704 72.3795ZM455.85 68.3934C459.22 68.3934 462.25 67.599 464.92 65.9968L464.252 64.8821C461.802 66.3519 459.007 67.0934 455.85 67.0934V68.3934ZM446.786 66.0004C449.514 67.5978 452.541 68.3934 455.85 68.3934V67.0934C452.759 67.0934 449.961 66.3531 447.442 64.8785L446.786 66.0004ZM440.406 59.3299C441.993 62.1087 444.116 64.3322 446.769 65.9906L447.458 64.8882C444.992 63.3466 443.018 61.2822 441.534 58.685L440.406 59.3299ZM438.112 49.7914C438.112 53.2809 438.87 56.4597 440.397 59.314L441.543 58.7009C440.126 56.0512 439.412 53.086 439.412 49.7914H438.112ZM440.4 40.2632C438.869 43.0586 438.112 46.2405 438.112 49.7914H439.412C439.412 46.4304 440.127 43.4682 441.54 40.8876L440.4 40.2632ZM446.78 33.5861C444.117 35.1838 441.991 37.4132 440.402 40.2586L441.538 40.8922C443.021 38.2337 444.991 36.1751 447.448 34.7008L446.78 33.5861ZM455.85 31.0934C452.536 31.0934 449.506 31.9237 446.776 33.5885L447.452 34.6984C449.97 33.1632 452.764 32.3934 455.85 32.3934V31.0934ZM464.93 33.5922C462.259 31.9224 459.225 31.0934 455.85 31.0934V32.3934C459.002 32.3934 461.793 33.1644 464.241 34.6946L464.93 33.5922ZM471.207 40.2689C469.682 37.4181 467.586 35.1853 464.92 33.5861L464.252 34.7008C466.706 36.1735 468.642 38.2287 470.061 40.882L471.207 40.2689ZM473.492 49.7914C473.492 46.2405 472.735 43.0586 471.204 40.2632L470.064 40.8876C471.477 43.4682 472.192 46.4304 472.192 49.7914H473.492ZM471.207 59.314C472.734 56.4597 473.492 53.2809 473.492 49.7914H472.192C472.192 53.086 471.478 56.0512 470.061 58.7009L471.207 59.314ZM464.93 65.9906C467.586 64.3307 469.679 62.1038 471.204 59.3196L470.064 58.6952C468.644 61.2871 466.706 63.3482 464.241 64.8882L464.93 65.9906ZM500.781 56.6281V71.2954H502.081V56.6281H500.781ZM505.777 51.8786L500.998 56.1431L501.864 57.113L506.642 52.8485L505.777 51.8786ZM524.977 74.5347L506.715 51.9548L505.704 52.7723L523.966 75.3522L524.977 74.5347ZM527.577 75.9263C526.561 75.8729 525.703 75.4283 524.976 74.5336L523.967 75.3533C524.904 76.5066 526.093 77.15 527.509 77.2245L527.577 75.9263ZM530.589 75.015C529.695 75.7418 528.712 76.0391 527.608 75.9287L527.479 77.2222C528.934 77.3678 530.256 76.961 531.409 76.0239L530.589 75.015ZM532.078 72.4114C532.026 73.3428 531.567 74.2096 530.586 75.0177L531.412 76.0212C532.607 75.0373 533.3 73.8561 533.376 72.4835L532.078 72.4114ZM531.167 69.4973C531.899 70.3989 532.189 71.3497 532.081 72.3794L533.374 72.5155C533.521 71.1132 533.107 69.824 532.176 68.6775L531.167 69.4973ZM512.588 46.6306L531.167 69.4973L532.176 68.6775L513.596 45.8108L512.588 46.6306ZM530.278 30.0105L512.659 45.7358L513.525 46.7057L531.144 30.9804L530.278 30.0105ZM531.598 27.3874C531.545 28.3485 531.123 29.2216 530.268 30.0202L531.155 30.9706C532.219 29.9773 532.822 28.8023 532.896 27.4595L531.598 27.3874ZM530.524 24.6989C531.317 25.549 531.651 26.4373 531.598 27.3874L532.896 27.4595C532.971 26.1056 532.473 24.8818 531.474 23.8119L530.524 24.6989ZM527.893 23.3685C528.924 23.4228 529.786 23.8481 530.508 24.6811L531.49 23.8297C530.548 22.7427 529.362 22.1441 527.961 22.0703L527.893 23.3685ZM525.203 24.4426C526.053 23.6492 526.941 23.3157 527.891 23.3684L527.963 22.0704C526.609 21.9952 525.386 22.4937 524.316 23.4922L525.203 24.4426ZM501.864 45.2728L525.192 24.4524L524.326 23.4825L500.998 44.3029L501.864 45.2728ZM500.781 5.72743V44.7879H502.081V5.72743H500.781ZM499.645 2.84375C500.388 3.53371 500.781 4.47014 500.781 5.72743H502.081C502.081 4.16874 501.578 2.86517 500.529 1.89112L499.645 2.84375ZM496.727 1.67344C497.984 1.67344 498.921 2.0667 499.611 2.80973L500.564 1.92514C499.589 0.876174 498.286 0.373438 496.727 0.373438V1.67344ZM493.731 2.82706C494.491 2.06704 495.471 1.67344 496.727 1.67344V0.373438C495.168 0.373438 493.844 0.875835 492.812 1.90782L493.731 2.82706ZM492.673 5.72743C492.673 4.45551 493.044 3.51368 493.731 2.82706L492.812 1.90782C491.834 2.8852 491.373 4.18337 491.373 5.72743H492.673ZM492.673 71.2954V5.72743H491.373V71.2954H492.673ZM493.747 74.3091C493.044 73.5516 492.673 72.566 492.673 71.2954H491.373C491.373 72.8409 491.834 74.1593 492.795 75.1937L493.747 74.3091ZM496.727 75.3494C495.457 75.3494 494.471 74.9786 493.713 74.2751L492.829 75.2277C493.863 76.1883 495.182 76.6494 496.727 76.6494V75.3494ZM499.628 74.2918C498.941 74.9784 497.999 75.3494 496.727 75.3494V76.6494C498.271 76.6494 499.569 76.1884 500.547 75.2111L499.628 74.2918ZM500.781 71.2954C500.781 72.552 500.388 73.5318 499.628 74.2918L500.547 75.2111C501.579 74.1791 502.081 72.8548 502.081 71.2954H500.781ZM561.77 75.7334C556.552 75.7334 551.924 74.6341 547.87 72.4511L547.254 73.5957C551.52 75.8928 556.364 77.0334 561.77 77.0334V75.7334ZM570.777 74.136C567.635 75.2045 564.633 75.7334 561.77 75.7334V77.0334C564.795 77.0334 567.938 76.4744 571.195 75.3668L570.777 74.136ZM578.742 70.0184C576.638 71.6895 573.989 73.0653 570.781 74.1348L571.192 75.3681C574.511 74.2616 577.303 72.8214 579.55 71.0365L578.742 70.0184ZM580.033 67.5875C580.083 68.4823 579.705 69.2817 578.751 70.0111L579.541 71.0438C580.763 70.1092 581.41 68.9246 581.331 67.5154L580.033 67.5875ZM578.524 64.8708C579.517 65.7471 579.981 66.6513 580.033 67.5875L581.331 67.5154C581.255 66.1475 580.567 64.9398 579.384 63.896L578.524 64.8708ZM576.014 64.0724C577.011 64.0171 577.837 64.2897 578.534 64.8796L579.374 63.8872C578.407 63.0692 577.249 62.7018 575.942 62.7744L576.014 64.0724ZM573.291 65.0036C574.15 64.3732 575.042 64.0734 575.978 64.0734V62.7734C574.739 62.7734 573.582 63.1776 572.522 63.9553L573.291 65.0036ZM568.04 67.6823C570.19 66.9006 571.949 66.0098 573.296 64.9994L572.516 63.9594C571.303 64.869 569.67 65.7063 567.596 66.4606L568.04 67.6823ZM561.77 68.7774C563.832 68.7774 565.92 68.4114 568.03 67.6861L567.607 66.4567C565.621 67.1395 563.676 67.4774 561.77 67.4774V68.7774ZM551.753 66.2926C554.679 67.9549 558.024 68.7774 561.77 68.7774V67.4774C558.22 67.4774 555.102 66.6999 552.395 65.1623L551.753 66.2926ZM544.888 59.5261C546.547 62.3793 548.839 64.6368 551.753 66.2926L552.395 65.1623C549.677 63.618 547.553 61.5236 546.012 58.8727L544.888 59.5261ZM542.67 53.2552C543.036 55.519 543.775 57.611 544.888 59.5261L546.012 58.8727C544.982 57.1006 544.295 55.1606 543.953 53.0477L542.67 53.2552ZM579.818 52.5014H543.312V53.8014H579.818V52.5014ZM582.545 51.5218C581.849 52.1643 580.958 52.5014 579.818 52.5014V53.8014C581.239 53.8014 582.459 53.3705 583.427 52.4771L582.545 51.5218ZM583.584 48.9274C583.584 49.9775 583.232 50.8342 582.527 51.5398L583.446 52.4591C584.404 51.5007 584.884 50.3094 584.884 48.9274H583.584ZM580.773 35.8741C582.64 39.6092 583.584 43.9545 583.584 48.9274H584.884C584.884 43.7884 583.908 39.2377 581.936 35.2927L580.773 35.8741ZM572.857 27.019C576.329 29.1271 578.964 32.0693 580.767 35.8625L581.941 35.3043C580.033 31.2895 577.227 28.1518 573.532 25.9078L572.857 27.019ZM560.33 23.7534C565.223 23.7534 569.386 24.8501 572.85 27.0146L573.539 25.9122C569.834 23.5968 565.422 22.4534 560.33 22.4534V23.7534ZM547.221 27.1192C551.013 24.8809 555.377 23.7534 560.33 23.7534V22.4534C555.172 22.4534 550.575 23.63 546.56 25.9997L547.221 27.1192ZM538.242 36.2831C540.426 32.3519 543.415 29.3028 547.214 27.1232L546.567 25.9956C542.557 28.2961 539.402 31.519 537.106 35.6518L538.242 36.2831ZM535.06 49.7914C535.06 44.6351 536.129 40.1379 538.244 36.28L537.104 35.6549C534.868 39.733 533.76 44.4518 533.76 49.7914H535.06ZM538.431 63.2929C536.189 59.3702 535.06 54.8758 535.06 49.7914H533.76C533.76 55.0751 534.935 59.7967 537.302 63.9379L538.431 63.2929ZM547.881 72.4569C543.882 70.2075 540.733 67.1513 538.424 63.2823L537.308 63.9485C539.735 68.0156 543.05 71.2314 547.244 73.59L547.881 72.4569ZM544.482 40.0982C543.687 41.7258 543.121 43.4793 542.782 45.3558L544.061 45.5871C544.38 43.8213 544.911 42.1828 545.65 40.6687L544.482 40.0982ZM550.578 33.2082C547.909 34.8761 545.875 37.1798 544.48 40.1035L545.653 40.6634C546.945 37.9551 548.815 35.8428 551.267 34.3106L550.578 33.2082ZM560.33 30.7094C556.585 30.7094 553.327 31.5315 550.584 33.2045L551.261 34.3144C553.765 32.7873 556.779 32.0094 560.33 32.0094V30.7094ZM568.847 33.0242C566.482 31.47 563.632 30.7094 560.33 30.7094V32.0094C563.428 32.0094 566.018 32.7209 568.133 34.1106L568.847 33.0242ZM574.261 39.3365C572.997 36.6755 571.192 34.5654 568.847 33.0242L568.133 34.1106C570.268 35.5135 571.919 37.4354 573.087 39.8943L574.261 39.3365ZM576.038 45.386C575.748 43.1931 575.156 41.173 574.259 39.3308L573.09 39.9001C573.921 41.6062 574.476 43.4901 574.75 45.5568L576.038 45.386ZM543.422 46.1214H575.394V44.8214H543.422V46.1214ZM600.873 43.1674V71.1994H602.173V43.1674H600.873ZM603.84 35.4197C601.854 37.4738 600.873 40.0737 600.873 43.1674H602.173C602.173 40.3731 603.048 38.1091 604.775 36.3232L603.84 35.4197ZM611.946 31.3C608.588 32.0243 605.874 33.385 603.848 35.4118L604.767 36.3311C606.58 34.5178 609.05 33.2545 612.22 32.5708L611.946 31.3ZM623.253 31.4904C619.09 30.6449 615.317 30.573 611.946 31.3L612.22 32.5708C615.377 31.8899 618.964 31.9459 622.994 32.7644L623.253 31.4904ZM625.311 31.5839C624.709 31.6934 624.032 31.67 623.269 31.4941L622.977 32.7608C623.879 32.9689 624.737 33.0095 625.543 32.863L625.311 31.5839ZM626.823 30.8703C626.404 31.2368 625.906 31.4758 625.311 31.5839L625.543 32.863C626.357 32.7151 627.074 32.3781 627.679 31.8486L626.823 30.8703ZM627.768 29.1112C627.599 29.8983 627.274 30.4699 626.819 30.8736L627.683 31.8452C628.381 31.225 628.823 30.3886 629.039 29.3836L627.768 29.1112ZM625.847 25.3806C626.744 25.9484 627.307 26.5408 627.606 27.1381C627.897 27.7213 627.962 28.3585 627.774 29.0843L629.032 29.4106C629.292 28.4084 629.213 27.4456 628.769 26.5567C628.331 25.682 627.566 24.9305 626.543 24.2823L625.847 25.3806ZM617.651 23.5614C621.442 23.5614 624.131 24.1976 625.826 25.3665L626.564 24.2963C624.547 22.9053 621.54 22.2614 617.651 22.2614V23.5614ZM607.409 26.1666C610.507 24.4315 613.917 23.5614 617.651 23.5614V22.2614C613.705 22.2614 610.075 23.1834 606.774 25.0323L607.409 26.1666ZM602.01 30.4914C603.529 28.774 605.327 27.3323 607.409 26.1666L606.774 25.0323C604.569 26.2667 602.655 27.7994 601.036 29.6302L602.01 30.4914ZM600.873 28.2874V30.0608H602.173V28.2874H600.873ZM599.834 25.213C600.485 25.8141 600.873 26.7921 600.873 28.2874H602.173C602.173 26.5828 601.729 25.1927 600.716 24.2578L599.834 25.213ZM596.723 24.1374C598.219 24.1374 599.196 24.5251 599.798 25.1763L600.753 24.2946C599.818 23.2817 598.428 22.8374 596.723 22.8374V24.1374ZM593.631 25.195C594.307 24.5189 595.305 24.1374 596.723 24.1374V22.8374C595.07 22.8374 593.699 23.288 592.712 24.2758L593.631 25.195ZM592.573 28.2874C592.573 26.869 592.955 25.8712 593.631 25.195L592.712 24.2758C591.724 25.2637 591.273 26.6338 591.273 28.2874H592.573ZM592.573 71.1994V28.2874H591.273V71.1994H592.573ZM593.631 74.3878C592.959 73.7164 592.573 72.6907 592.573 71.1994H591.273C591.273 72.9082 591.719 74.3145 592.712 75.3071L593.631 74.3878ZM596.723 75.3494C595.291 75.3494 594.287 74.9925 593.612 74.3698L592.73 75.3251C593.72 76.2384 595.083 76.6494 596.723 76.6494V75.3494ZM599.798 74.3106C599.196 74.9617 598.219 75.3494 596.723 75.3494V76.6494C598.428 76.6494 599.818 76.2051 600.753 75.1923L599.798 74.3106ZM600.873 71.1994C600.873 72.6178 600.492 73.6157 599.816 74.2918L600.735 75.211C601.723 74.2232 602.173 72.853 602.173 71.1994H600.873Z" fill="#F17661" mask="url(#path-1-outside-1_1449_22440)"/>
<path d="M472.234 27.3304C472.234 24.3865 474.621 22 477.565 22V22C480.509 22 482.895 24.3865 482.895 27.3304V56H472.234V27.3304Z" fill="#F17661"/>
<path d="M245.68 6C245.68 2.68629 248.366 0 251.68 0V0C254.993 0 257.68 2.68629 257.68 6V72C257.68 75.3137 254.993 78 251.68 78V78C248.366 78 245.68 75.3137 245.68 72V6Z" fill="#F17661"/>
<path d="M2.31495 2.24929L2.31494 2.24928L2.31327 2.25091C1.21804 3.31643 0.675 4.67305 0.675 6.32192V75.6781C0.675 76.1279 0.719968 76.5645 0.810524 76.9874L0.810945 76.9893C1.03848 78.0215 1.5401 78.9326 2.31 79.7031L2.31162 79.7047C3.40045 80.7791 4.73777 81.325 6.31834 81.325C7.97984 81.325 9.3349 80.7821 10.3996 79.7014L10.4024 79.6985C10.7715 79.3144 11.0711 78.8985 11.2989 78.4507C11.3857 78.3365 11.4375 78.2142 11.4709 78.1049C11.8145 77.3632 11.9759 76.5523 11.9759 75.6781V53.574H26.7933C31.9595 53.574 36.5631 52.4648 40.5667 50.252C44.5829 48.0402 47.7061 44.9584 49.96 41.0114C52.2157 37.0613 53.325 32.5672 53.325 27.5383C53.325 22.513 52.2173 17.6485 49.9618 13.5974C47.7089 9.55101 44.5867 6.38305 40.5706 4.09898C36.566 1.81335 31.9609 0.675 26.7933 0.675H6.31834C4.74062 0.675 3.40436 1.20457 2.31495 2.24929ZM40.4418 35.5661L40.4414 35.5669C39.1018 37.9127 37.2617 39.7405 34.9299 41.0819C32.5901 42.4197 29.8812 43.0934 26.7933 43.0934H11.9759V11.1556H26.7933C29.8773 11.1556 32.5844 11.8703 34.924 13.2635C37.2558 14.6748 39.0974 16.5873 40.4386 19.0339C41.777 21.4753 42.4375 24.3019 42.4375 27.5383C42.4375 30.5573 41.7785 33.2393 40.4418 35.5661Z" fill="#F17661" stroke="#F17661" stroke-width="0.65"/>
</svg>
