<svg width="24" height="24" viewBox="0 0 24 24" fill="none" xmlns="http://www.w3.org/2000/svg">
<g id="Iconsax/Linear/briefcase">
<path id="Vector" d="M8.00007 6V5.2C8.00007 3.43 8.00007 2 11.2001 2H12.8001C16.0001 2 16.0001 3.43 16.0001 5.2V6M8.00007 22H16.0001C20.0201 22 20.7401 20.39 20.9501 18.43L21.7001 10.43C21.9701 7.99 21.2701 6 17.0001 6H7.00007C2.73007 6 2.03007 7.99 2.30007 10.43L3.05007 18.43C3.26007 20.39 3.98007 22 8.00007 22Z" stroke="black" stroke-width="1.5" stroke-miterlimit="10" stroke-linecap="round" stroke-linejoin="round"/>
<path id="Vector_2" d="M14.0001 14.02V13C14.0001 12 14.0001 12 13.0001 12H11.0001C10.0001 12 10.0001 12 10.0001 13V14.03M14.0001 14.02C14.0001 15.11 13.9901 16 12.0001 16C10.0201 16 10.0001 15.12 10.0001 14.03M14.0001 14.02C16.7643 13.6759 19.3962 12.6369 21.6501 11M10.0001 14.03C7.41012 13.74 4.87012 12.81 2.62012 11.27" stroke="black" stroke-width="1.5" stroke-miterlimit="10" stroke-linecap="round" stroke-linejoin="round"/>
</g>
</svg>
