<svg width="30" height="29" viewBox="0 0 30 29" fill="none" xmlns="http://www.w3.org/2000/svg">
<g id="Iconsax/Linear/buildings2">
<path id="Vector" d="M8.375 22.5H5.1875C3.4 22.5 2.5 21.6 2.5 19.8125V5.1875C2.5 3.4 3.4 2.5 5.1875 2.5H10.5625C12.35 2.5 13.25 3.4 13.25 5.1875V7.5" stroke="black" stroke-width="1.5" stroke-miterlimit="10" stroke-linecap="round" stroke-linejoin="round"/>
<path id="Vector_2" d="M21.7125 10.525V24.475C21.7125 26.4875 20.7125 27.5 18.7 27.5H11.4C9.3875 27.5 8.375 26.4875 8.375 24.475V10.525C8.375 8.5125 9.3875 7.5 11.4 7.5H18.7C20.7125 7.5 21.7125 8.5125 21.7125 10.525Z" stroke="black" stroke-width="1.5" stroke-miterlimit="10" stroke-linecap="round" stroke-linejoin="round"/>
<path id="Vector_3" d="M16.75 7.5V5.1875C16.75 3.4 17.65 2.5 19.4375 2.5H24.8125C26.6 2.5 27.5 3.4 27.5 5.1875V19.8125C27.5 21.6 26.6 22.5 24.8125 22.5H21.7125M12.5 13.75H17.5M12.5 17.5H17.5M15 27.5V23.75" stroke="black" stroke-width="1.5" stroke-miterlimit="10" stroke-linecap="round" stroke-linejoin="round"/>
</g>
</svg>
