<svg width="30" height="30" viewBox="0 0 30 30" fill="none" xmlns="http://www.w3.org/2000/svg">
<g id="Iconsax/Linear/profiletick">
<path id="Vector" d="M18.05 23.8125L19.95 25.7125L23.75 21.9125M14.9875 27.2625C12.7125 27.2625 10.45 26.6875 8.72505 25.5375C5.70005 23.5125 5.70005 20.2125 8.72505 18.2C12.1625 15.9 17.8 15.9 21.2375 18.2M15.2 13.5875C15.075 13.575 14.925 13.575 14.7875 13.5875C13.3528 13.5388 11.9934 12.9335 10.9971 11.8999C10.0008 10.8664 9.44597 9.48557 9.45005 8.05C9.44807 7.32166 9.58987 6.6001 9.8673 5.92666C10.1447 5.25323 10.5523 4.64117 11.0668 4.12558C11.5812 3.60998 12.1924 3.20099 12.8652 2.92204C13.538 2.64309 14.2592 2.49967 14.9875 2.5C18.05 2.5 20.5375 4.9875 20.5375 8.05C20.5375 11.05 18.1625 13.4875 15.2 13.5875Z" stroke="black" stroke-width="1.5" stroke-linecap="round" stroke-linejoin="round"/>
</g>
</svg>
